<?xml version="1.0" encoding="utf-8"?>
<!-- Generator: Adobe Illustrator 22.0.0, SVG Export Plug-In . SVG Version: 6.00 Build 0)  -->
<svg version="1.1" id="Layer_1" xmlns="http://www.w3.org/2000/svg" xmlns:xlink="http://www.w3.org/1999/xlink" x="0px" y="0px"
	 viewBox="0 0 700 700" style="enable-background:new 0 0 700 700;" xml:space="preserve">
<style type="text/css">
	.st0{display:none;fill:url(#SVGID_1_);}
	.st1{display:none;}
	.st2{display:inline;fill:#0A0A0A;}
	.st3{display:inline;fill:#E20707;}
	.st4{display:inline;fill:#999999;}
	.st5{fill:url(#SVGID_2_);}
	.st6{fill:url(#SVGID_3_);}
	.st7{filter:url(#Adobe_OpacityMaskFilter);}
	.st8{filter:url(#Adobe_OpacityMaskFilter_1_);}
	.st9{mask:url(#SVGID_4_);fill:url(#SVGID_5_);}
	.st10{fill:url(#SVGID_6_);}
</style>
<radialGradient id="SVGID_1_" cx="350" cy="350" r="350" gradientUnits="userSpaceOnUse">
	<stop  offset="0" style="stop-color:#FFFFFF"/>
	<stop  offset="0.4714" style="stop-color:#F6F6F6"/>
	<stop  offset="1" style="stop-color:#E6E6E6"/>
</radialGradient>
<rect class="st0" width="700" height="700"/>
<g>
	<g class="st1">
		<path class="st2" d="M272.7,521l6.4,23.1l6.4-23.1h6.8l6.5,23.1l6.4-23.1h7.1l-10.2,30.7H295l-6.2-21.9l-6.3,21.9h-7.1L265.2,521
			H272.7z"/>
		<path class="st3" d="M345.8,536.3c0,8.8-7.1,15.6-16.5,15.6c-9.4,0-16.5-6.7-16.5-15.6c0-8.9,7.1-15.6,16.5-15.6
			C338.7,520.8,345.8,527.5,345.8,536.3z M320,536.3c0,5.4,4.3,9.6,9.5,9.6c5.1,0,9.3-4.2,9.3-9.6c0-5.4-4.2-9.5-9.3-9.5
			C324.3,526.8,320,531,320,536.3z"/>
		<path class="st2" d="M369.2,551.7l-4.9-8.8h-0.7h-6.4v8.8h-6.9V521h13.3c8,0,12.6,3.9,12.6,10.6c0,4.7-2,8.1-5.7,9.9l6.5,10.1
			H369.2z M357.3,537.1h6.4c3.8,0,6-1.8,6-5.3c0-3.4-2.2-5.1-6-5.1h-6.4V537.1z"/>
		<path class="st2" d="M389,521v24.6h13.1v6h-20.1V521H389z"/>
		<path class="st2" d="M435.4,536.3c0,9-6.7,15.3-16.4,15.3h-12.7V521h13C428.8,521,435.4,527.3,435.4,536.3z M428.3,536.4
			c0-5.7-3.9-9.5-9.2-9.5h-6v19h6.3C424.6,545.9,428.3,542,428.3,536.4z"/>
	</g>
	<g class="st1">
		<path class="st2" d="M336.9,624.3c0,9-6.7,15.3-16.4,15.3h-12.7V609h13C330.2,609,336.9,615.2,336.9,624.3z M329.8,624.4
			c0-5.7-3.9-9.5-9.2-9.5h-6v19h6.3C326,633.8,329.8,630,329.8,624.4z"/>
		<path class="st2" d="M360.8,633.7h-14.2l-2.4,6h-7.1l13.3-30.7h7.1l13.1,30.7h-7.4L360.8,633.7z M358.6,628.1l-4.8-11.9l-4.9,11.9
			H358.6z"/>
		<path class="st2" d="M386.3,629.7v9.9h-6.9v-9.7L368,609h7l7.8,13.8l7.7-13.8h7L386.3,629.7z"/>
	</g>
	<g class="st1">
		<path class="st3" d="M206.8,572.8c0,3.3-2,5.9-5.3,6.7c3.9,0.7,6.4,3.7,6.4,7.8c0,5.3-4.4,8.5-11.6,8.5h-14.6v-30.7h14.1
			C202.6,565.1,206.8,568,206.8,572.8z M199.7,574c0-2.1-1.6-3.3-4.2-3.3h-6.8v6.7h6.8C198.1,577.5,199.7,576.2,199.7,574z
			 M200.7,586.4c0-2.2-2-3.6-5.3-3.6h-6.8v7.3h6.8C198.8,590.1,200.7,588.8,200.7,586.4z"/>
		<path class="st3" d="M219.8,565.1v24.6H233v6h-20.1v-30.7H219.8z"/>
		<path class="st3" d="M267.9,580.4c0,8.8-7.1,15.6-16.5,15.6c-9.4,0-16.5-6.7-16.5-15.6c0-8.9,7.1-15.6,16.5-15.6
			C260.8,564.9,267.9,571.5,267.9,580.4z M242,580.4c0,5.4,4.3,9.6,9.5,9.6c5.1,0,9.3-4.2,9.3-9.6c0-5.4-4.2-9.5-9.3-9.5
			C246.3,570.9,242,575.1,242,580.4z"/>
		<path class="st3" d="M302.4,580.4c0,8.8-7.1,15.6-16.5,15.6c-9.4,0-16.5-6.7-16.5-15.6c0-8.9,7.1-15.6,16.5-15.6
			C295.3,564.9,302.4,571.5,302.4,580.4z M276.5,580.4c0,5.4,4.3,9.6,9.5,9.6c5.1,0,9.3-4.2,9.3-9.6c0-5.4-4.2-9.5-9.3-9.5
			C280.8,570.9,276.5,575.1,276.5,580.4z"/>
		<path class="st3" d="M336.1,580.4c0,9-6.7,15.3-16.4,15.3h-12.7v-30.7h13C329.5,565.1,336.1,571.4,336.1,580.4z M329,580.5
			c0-5.7-3.9-9.5-9.2-9.5h-6v19h6.3C325.2,589.9,329,586.1,329,580.5z"/>
		<path class="st3" d="M380.3,580.4c0,9-6.7,15.3-16.4,15.3h-12.7v-30.7h13C373.7,565.1,380.3,571.4,380.3,580.4z M373.3,580.5
			c0-5.7-3.9-9.5-9.2-9.5h-6v19h6.3C369.5,589.9,373.3,586.1,373.3,580.5z"/>
		<path class="st3" d="M414.8,580.4c0,8.8-7.1,15.6-16.5,15.6s-16.5-6.7-16.5-15.6c0-8.9,7.1-15.6,16.5-15.6
			S414.8,571.5,414.8,580.4z M389,580.4c0,5.4,4.3,9.6,9.5,9.6c5.1,0,9.3-4.2,9.3-9.6c0-5.4-4.2-9.5-9.3-9.5
			C393.3,570.9,389,575.1,389,580.4z"/>
		<path class="st3" d="M425.7,565.1l14.9,19.7v-19.7h6.6v30.7h-6.3L426,576.1v19.7h-6.6v-30.7H425.7z"/>
		<path class="st3" d="M484.7,580.4c0,8.8-7.1,15.6-16.5,15.6s-16.5-6.7-16.5-15.6c0-8.9,7.1-15.6,16.5-15.6
			S484.7,571.5,484.7,580.4z M458.8,580.4c0,5.4,4.3,9.6,9.5,9.6c5.1,0,9.3-4.2,9.3-9.6c0-5.4-4.2-9.5-9.3-9.5
			C463.1,570.9,458.8,575.1,458.8,580.4z"/>
		<path class="st3" d="M508.1,595.8l-4.9-8.8h-0.7h-6.4v8.8h-6.9v-30.7h13.3c8,0,12.6,3.9,12.6,10.6c0,4.7-2,8.1-5.7,9.9l6.5,10.1
			H508.1z M496.1,581.2h6.4c3.8,0,6-1.8,6-5.3c0-3.4-2.2-5.1-6-5.1h-6.4V581.2z"/>
	</g>
	<g class="st1">
		<path class="st4" d="M171.9,676.3h1.2v8.2h4.9v1h-6.1V676.3z"/>
		<path class="st4" d="M181.7,678.6c2.1,0,3.2,1.5,3.2,3.5c0,2-1.1,3.5-3.2,3.5c-2.1,0-3.2-1.5-3.2-3.5
			C178.5,680.2,179.6,678.6,181.7,678.6z M181.7,684.7c1.1,0,2.1-0.9,2.1-2.5c0-1.6-0.9-2.5-2.1-2.5c-1.1,0-2.1,0.9-2.1,2.5
			C179.7,683.8,180.6,684.7,181.7,684.7z"/>
		<path class="st4" d="M186.2,678.8h1v1.4h0c0.5-1.1,1.3-1.6,2.5-1.6v1.2c-1.8,0-2.4,1-2.4,2.7v3h-1.1V678.8z"/>
		<path class="st4" d="M196,683.4c-0.3,1.5-1.4,2.3-2.9,2.3c-2.1,0-3.1-1.5-3.2-3.5c0-2,1.3-3.5,3.1-3.5c2.4,0,3.1,2.2,3,3.8h-5
			c0,1.2,0.6,2.2,2.1,2.2c0.9,0,1.5-0.4,1.7-1.3H196z M195,681.5c-0.1-1-0.8-1.9-1.9-1.9c-1.2,0-1.8,0.9-1.9,1.9H195z"/>
		<path class="st4" d="M197.3,678.8h1v1h0c0.5-0.7,1.2-1.1,2.2-1.1c0.8,0,1.6,0.3,1.8,1.1c0.5-0.7,1.2-1.1,2.1-1.1
			c1.3,0,2.2,0.6,2.2,1.9v4.9h-1.1v-4.4c0-0.8-0.2-1.5-1.3-1.5c-1.1,0-1.7,0.7-1.7,1.7v4.2h-1.1v-4.4c0-0.9-0.3-1.5-1.3-1.5
			c-1.3,0-1.8,1.2-1.8,1.7v4.2h-1.1V678.8z"/>
		<path class="st4" d="M212.5,677.6h-1.1v-1.3h1.1V677.6z M211.4,678.8h1.1v6.7h-1.1V678.8z"/>
		<path class="st4" d="M214.2,678.8h1.1v0.9h0c0.4-0.7,1.2-1.1,2.1-1.1c2.1,0,3.1,1.6,3.1,3.5c0,1.9-1,3.5-3,3.5
			c-0.7,0-1.7-0.3-2.2-1h0v3.4h-1.1V678.8z M217.3,679.6c-1.5,0-2,1.3-2,2.5c0,1.3,0.6,2.5,2.1,2.5c1.5,0,2-1.3,2-2.6
			C219.4,680.8,218.7,679.6,217.3,679.6z"/>
		<path class="st4" d="M222.5,683.4c0,1,0.9,1.3,1.8,1.3c0.7,0,1.6-0.2,1.6-1c0-0.9-1.1-1-2.2-1.2c-1.1-0.2-2.2-0.6-2.2-1.9
			c0-1.3,1.3-1.9,2.5-1.9c1.5,0,2.6,0.5,2.7,2.1h-1.1c-0.1-0.9-0.8-1.1-1.5-1.1c-0.7,0-1.4,0.2-1.4,0.9c0,0.8,1.2,0.9,2.2,1.2
			c1.1,0.2,2.2,0.6,2.2,1.9c0,1.6-1.5,2.1-2.8,2.1c-1.5,0-2.8-0.6-2.8-2.3H222.5z"/>
		<path class="st4" d="M233.8,685.5h-1v-1.1h0c-0.5,0.8-1.2,1.2-2.2,1.2c-1.8,0-2.3-1-2.3-2.4v-4.4h1.1v4.5c0,0.8,0.5,1.3,1.4,1.3
			c1.3,0,2-0.9,2-2.1v-3.8h1.1V685.5z"/>
		<path class="st4" d="M235.4,678.8h1v1h0c0.5-0.7,1.2-1.1,2.2-1.1c0.8,0,1.6,0.3,1.8,1.1c0.5-0.7,1.2-1.1,2.1-1.1
			c1.3,0,2.2,0.6,2.2,1.9v4.9h-1.1v-4.4c0-0.8-0.2-1.5-1.3-1.5c-1.1,0-1.7,0.7-1.7,1.7v4.2h-1.1v-4.4c0-0.9-0.3-1.5-1.3-1.5
			c-1.3,0-1.8,1.2-1.8,1.7v4.2h-1.1V678.8z"/>
		<path class="st4" d="M255.4,685.5h-1.1v-0.9h0c-0.4,0.7-1.2,1.1-2.1,1.1c-2.1,0-3.1-1.6-3.1-3.5c0-1.9,1-3.5,3-3.5
			c0.7,0,1.7,0.3,2.2,1h0v-3.4h1.1V685.5z M252.3,684.7c1.5,0,2-1.3,2-2.5c0-1.3-0.6-2.5-2.1-2.5c-1.5,0-2,1.3-2,2.6
			C250.3,683.4,250.9,684.7,252.3,684.7z"/>
		<path class="st4" d="M260,678.6c2.1,0,3.2,1.5,3.2,3.5c0,2-1.1,3.5-3.2,3.5c-2.1,0-3.2-1.5-3.2-3.5
			C256.8,680.2,257.9,678.6,260,678.6z M260,684.7c1.1,0,2.1-0.9,2.1-2.5c0-1.6-0.9-2.5-2.1-2.5c-1.1,0-2.1,0.9-2.1,2.5
			C257.9,683.8,258.9,684.7,260,684.7z"/>
		<path class="st4" d="M264.6,676.3h1.1v9.2h-1.1V676.3z"/>
		<path class="st4" d="M270.3,678.6c2.1,0,3.2,1.5,3.2,3.5c0,2-1.1,3.5-3.2,3.5c-2.1,0-3.2-1.5-3.2-3.5
			C267,680.2,268.2,678.6,270.3,678.6z M270.3,684.7c1.1,0,2.1-0.9,2.1-2.5c0-1.6-0.9-2.5-2.1-2.5c-1.1,0-2.1,0.9-2.1,2.5
			C268.2,683.8,269.1,684.7,270.3,684.7z"/>
		<path class="st4" d="M274.8,678.8h1v1.4h0c0.5-1.1,1.3-1.6,2.5-1.6v1.2c-1.8,0-2.4,1-2.4,2.7v3h-1.1V678.8z"/>
		<path class="st4" d="M282.8,683.4c0,1,0.9,1.3,1.8,1.3c0.7,0,1.6-0.2,1.6-1c0-0.9-1.1-1-2.2-1.2c-1.1-0.2-2.2-0.6-2.2-1.9
			c0-1.3,1.3-1.9,2.5-1.9c1.5,0,2.6,0.5,2.7,2.1H286c-0.1-0.9-0.8-1.1-1.5-1.1c-0.7,0-1.4,0.2-1.4,0.9c0,0.8,1.2,0.9,2.2,1.2
			c1.1,0.2,2.2,0.6,2.2,1.9c0,1.6-1.5,2.1-2.8,2.1c-1.5,0-2.8-0.6-2.8-2.3H282.8z"/>
		<path class="st4" d="M289.8,677.6h-1.1v-1.3h1.1V677.6z M288.7,678.8h1.1v6.7h-1.1V678.8z"/>
		<path class="st4" d="M293,678.8h1.3v1H293v4.1c0,0.5,0.1,0.6,0.8,0.6h0.5v1h-0.8c-1.1,0-1.6-0.2-1.6-1.5v-4.2h-1.1v-1h1.1v-2h1.1
			V678.8z"/>
		<path class="st4" d="M304.5,685.4c-0.2,0.1-0.4,0.2-0.8,0.2c-0.6,0-0.9-0.3-0.9-1c-0.6,0.7-1.4,1-2.3,1c-1.2,0-2.2-0.5-2.2-1.9
			c0-1.5,1.1-1.8,2.3-2.1c1.2-0.2,2.2-0.2,2.2-1c0-1-0.8-1.1-1.5-1.1c-0.9,0-1.6,0.3-1.7,1.3h-1.1c0.1-1.7,1.3-2.2,2.8-2.2
			c1.2,0,2.5,0.3,2.5,1.8v3.4c0,0.5,0,0.7,0.3,0.7c0.1,0,0.2,0,0.3-0.1V685.4z M302.7,682c-0.4,0.3-1.3,0.3-2,0.5
			c-0.7,0.1-1.3,0.4-1.3,1.2c0,0.7,0.6,1,1.3,1c1.4,0,2-0.9,2-1.5V682z"/>
		<path class="st4" d="M305.5,678.8h1v1h0c0.5-0.7,1.2-1.1,2.2-1.1c0.8,0,1.6,0.3,1.8,1.1c0.5-0.7,1.2-1.1,2.1-1.1
			c1.3,0,2.2,0.6,2.2,1.9v4.9h-1.1v-4.4c0-0.8-0.2-1.5-1.3-1.5c-1.1,0-1.7,0.7-1.7,1.7v4.2h-1.1v-4.4c0-0.9-0.3-1.5-1.3-1.5
			c-1.3,0-1.8,1.2-1.8,1.7v4.2h-1.1V678.8z"/>
		<path class="st4" d="M322.2,683.4c-0.3,1.5-1.4,2.3-2.9,2.3c-2.1,0-3.1-1.5-3.2-3.5c0-2,1.3-3.5,3.1-3.5c2.4,0,3.1,2.2,3,3.8h-5
			c0,1.2,0.6,2.2,2.1,2.2c0.9,0,1.5-0.4,1.7-1.3H322.2z M321.1,681.5c-0.1-1-0.8-1.9-1.9-1.9c-1.1,0-1.8,0.9-1.9,1.9H321.1z"/>
		<path class="st4" d="M324.9,678.8h1.3v1h-1.3v4.1c0,0.5,0.1,0.6,0.8,0.6h0.5v1h-0.8c-1.1,0-1.6-0.2-1.6-1.5v-4.2h-1.1v-1h1.1v-2
			h1.1V678.8z"/>
		<path class="st4" d="M327.7,684h1.4v1.3c0,1-0.4,1.7-1.4,2v-0.6c0.6-0.2,0.8-0.8,0.7-1.3h-0.8V684z"/>
		<path class="st4" d="M338.6,680.9c-0.2-0.8-0.7-1.3-1.7-1.3c-1.6,0-2.1,1.3-2.1,2.6c0,1.2,0.6,2.4,1.9,2.4c1.1,0,1.7-0.6,1.8-1.6
			h1.1c-0.2,1.6-1.3,2.6-2.9,2.6c-2,0-3.1-1.4-3.1-3.4c0-2,1-3.6,3.1-3.6c1.5,0,2.7,0.7,2.9,2.3H338.6z"/>
		<path class="st4" d="M343.9,678.6c2.1,0,3.2,1.5,3.2,3.5c0,2-1.1,3.5-3.2,3.5c-2.1,0-3.2-1.5-3.2-3.5
			C340.7,680.2,341.8,678.6,343.9,678.6z M343.9,684.7c1.2,0,2.1-0.9,2.1-2.5c0-1.6-0.9-2.5-2.1-2.5c-1.1,0-2.1,0.9-2.1,2.5
			C341.8,683.8,342.8,684.7,343.9,684.7z"/>
		<path class="st4" d="M348.4,678.8h1v1.1h0c0.5-0.8,1.2-1.2,2.2-1.2c1.8,0,2.3,1,2.3,2.4v4.4h-1.1V681c0-0.8-0.5-1.3-1.4-1.3
			c-1.3,0-2,0.9-2,2.1v3.8h-1.1V678.8z"/>
		<path class="st4" d="M356.3,683.4c0,1,0.9,1.3,1.8,1.3c0.7,0,1.6-0.2,1.6-1c0-0.9-1.1-1-2.2-1.2c-1.1-0.2-2.2-0.6-2.2-1.9
			c0-1.3,1.3-1.9,2.5-1.9c1.5,0,2.6,0.5,2.7,2.1h-1.1c-0.1-0.9-0.8-1.1-1.5-1.1c-0.7,0-1.4,0.2-1.4,0.9c0,0.8,1.2,0.9,2.2,1.2
			c1.1,0.2,2.2,0.6,2.2,1.9c0,1.6-1.5,2.1-2.8,2.1c-1.5,0-2.8-0.6-2.8-2.3H356.3z"/>
		<path class="st4" d="M367.8,683.4c-0.3,1.5-1.4,2.3-2.9,2.3c-2.1,0-3.1-1.5-3.2-3.5c0-2,1.3-3.5,3.1-3.5c2.4,0,3.1,2.2,3,3.8h-5
			c0,1.2,0.6,2.2,2.1,2.2c0.9,0,1.5-0.4,1.7-1.3H367.8z M366.7,681.5c-0.1-1-0.8-1.9-1.9-1.9c-1.1,0-1.8,0.9-1.9,1.9H366.7z"/>
		<path class="st4" d="M373.5,680.9c-0.2-0.8-0.7-1.3-1.7-1.3c-1.6,0-2.1,1.3-2.1,2.6c0,1.2,0.6,2.4,2,2.4c1.1,0,1.7-0.6,1.8-1.6
			h1.1c-0.2,1.6-1.3,2.6-2.9,2.6c-2,0-3.1-1.4-3.1-3.4c0-2,1-3.6,3.1-3.6c1.5,0,2.7,0.7,2.9,2.3H373.5z"/>
		<path class="st4" d="M377.4,678.8h1.3v1h-1.3v4.1c0,0.5,0.1,0.6,0.8,0.6h0.5v1h-0.8c-1.1,0-1.6-0.2-1.6-1.5v-4.2h-1.1v-1h1.1v-2
			h1.1V678.8z"/>
		<path class="st4" d="M385.7,683.4c-0.3,1.5-1.4,2.3-2.9,2.3c-2.1,0-3.1-1.5-3.2-3.5c0-2,1.3-3.5,3.1-3.5c2.4,0,3.1,2.2,3,3.8h-5
			c0,1.2,0.6,2.2,2.1,2.2c0.9,0,1.5-0.4,1.7-1.3H385.7z M384.6,681.5c-0.1-1-0.8-1.9-1.9-1.9c-1.1,0-1.8,0.9-1.9,1.9H384.6z"/>
		<path class="st4" d="M388.4,678.8h1.3v1h-1.3v4.1c0,0.5,0.1,0.6,0.8,0.6h0.5v1h-0.8c-1.1,0-1.6-0.2-1.6-1.5v-4.2h-1.1v-1h1.1v-2
			h1.1V678.8z"/>
		<path class="st4" d="M396.5,685.5h-1v-1.1h0c-0.5,0.8-1.2,1.2-2.2,1.2c-1.8,0-2.3-1-2.3-2.4v-4.4h1.1v4.5c0,0.8,0.5,1.3,1.4,1.3
			c1.3,0,2-0.9,2-2.1v-3.8h1.1V685.5z"/>
		<path class="st4" d="M398.1,678.8h1v1.4h0c0.5-1.1,1.3-1.6,2.5-1.6v1.2c-1.8,0-2.4,1-2.4,2.7v3h-1.1V678.8z"/>
		<path class="st4" d="M411.4,685.4c-0.2,0.1-0.4,0.2-0.8,0.2c-0.6,0-0.9-0.3-0.9-1c-0.6,0.7-1.4,1-2.3,1c-1.2,0-2.2-0.5-2.2-1.9
			c0-1.5,1.1-1.8,2.3-2.1c1.2-0.2,2.2-0.2,2.2-1c0-1-0.8-1.1-1.5-1.1c-0.9,0-1.6,0.3-1.7,1.3h-1.1c0.1-1.7,1.3-2.2,2.8-2.2
			c1.2,0,2.5,0.3,2.5,1.8v3.4c0,0.5,0,0.7,0.3,0.7c0.1,0,0.2,0,0.3-0.1V685.4z M409.6,682c-0.4,0.3-1.3,0.3-2,0.5
			c-0.7,0.1-1.3,0.4-1.3,1.2c0,0.7,0.6,1,1.3,1c1.4,0,2-0.9,2-1.5V682z"/>
		<path class="st4" d="M418.4,685.5h-1.1v-0.9h0c-0.4,0.7-1.2,1.1-2.1,1.1c-2.1,0-3.1-1.6-3.1-3.5c0-1.9,1-3.5,3-3.5
			c0.7,0,1.7,0.3,2.2,1h0v-3.4h1.1V685.5z M415.3,684.7c1.5,0,2-1.3,2-2.5c0-1.3-0.6-2.5-2.1-2.5c-1.5,0-2,1.3-2,2.6
			C413.2,683.4,413.9,684.7,415.3,684.7z"/>
		<path class="st4" d="M421.2,677.6h-1.1v-1.3h1.1V677.6z M420.1,678.8h1.1v6.7h-1.1V678.8z"/>
		<path class="st4" d="M423,678.8h1.1v0.9h0c0.4-0.7,1.2-1.1,2.1-1.1c2.1,0,3.1,1.6,3.1,3.5c0,1.9-1,3.5-3,3.5c-0.7,0-1.7-0.3-2.2-1
			h0v3.4H423V678.8z M426.1,679.6c-1.5,0-2,1.3-2,2.5c0,1.3,0.6,2.5,2.1,2.5c1.5,0,2-1.3,2-2.6C428.1,680.8,427.5,679.6,426.1,679.6
			z"/>
		<path class="st4" d="M431.7,677.6h-1.1v-1.3h1.1V677.6z M430.6,678.8h1.1v6.7h-1.1V678.8z"/>
		<path class="st4" d="M434.1,683.4c0,1,0.9,1.3,1.8,1.3c0.7,0,1.6-0.2,1.6-1c0-0.9-1.1-1-2.2-1.2c-1.1-0.2-2.2-0.6-2.2-1.9
			c0-1.3,1.3-1.9,2.5-1.9c1.5,0,2.6,0.5,2.7,2.1h-1.1c-0.1-0.9-0.8-1.1-1.5-1.1c-0.7,0-1.4,0.2-1.4,0.9c0,0.8,1.2,0.9,2.2,1.2
			c1.1,0.2,2.2,0.6,2.2,1.9c0,1.6-1.5,2.1-2.8,2.1c-1.5,0-2.8-0.6-2.8-2.3H434.1z"/>
		<path class="st4" d="M444.4,680.9c-0.2-0.8-0.7-1.3-1.7-1.3c-1.6,0-2.1,1.3-2.1,2.6c0,1.2,0.6,2.4,1.9,2.4c1.1,0,1.7-0.6,1.8-1.6
			h1.1c-0.2,1.6-1.3,2.6-2.9,2.6c-2,0-3.1-1.4-3.1-3.4c0-2,1-3.6,3.1-3.6c1.5,0,2.7,0.7,2.9,2.3H444.4z"/>
		<path class="st4" d="M448,677.6h-1.1v-1.3h1.1V677.6z M446.9,678.8h1.1v6.7h-1.1V678.8z"/>
		<path class="st4" d="M449.7,678.8h1v1.1h0c0.5-0.8,1.2-1.2,2.2-1.2c1.8,0,2.3,1,2.3,2.4v4.4h-1.1V681c0-0.8-0.5-1.3-1.4-1.3
			c-1.3,0-2,0.9-2,2.1v3.8h-1.1V678.8z"/>
		<path class="st4" d="M462.6,684.9c0,2.2-1,3.3-3.1,3.3c-1.3,0-2.7-0.5-2.8-2h1.1c0.1,0.8,1,1.1,1.7,1.1c1.4,0,2-1,2-2.5v-0.4h0
			c-0.4,0.8-1.2,1.2-2.1,1.2c-2,0-3-1.6-3-3.4c0-1.6,0.8-3.5,3.1-3.5c0.8,0,1.6,0.4,2,1.1h0v-1h1V684.9z M461.5,682
			c0-1.2-0.5-2.4-1.9-2.4c-1.4,0-2,1.1-2,2.4c0,1.2,0.4,2.5,1.9,2.5C461,684.6,461.5,683.3,461.5,682z"/>
		<path class="st4" d="M473,683.4c-0.3,1.5-1.4,2.3-2.9,2.3c-2.1,0-3.1-1.5-3.2-3.5c0-2,1.3-3.5,3.1-3.5c2.4,0,3.1,2.2,3,3.8h-5
			c0,1.2,0.6,2.2,2.1,2.2c0.9,0,1.5-0.4,1.7-1.3H473z M471.9,681.5c-0.1-1-0.8-1.9-1.9-1.9c-1.1,0-1.8,0.9-1.9,1.9H471.9z"/>
		<path class="st4" d="M474.3,676.3h1.1v9.2h-1.1V676.3z"/>
		<path class="st4" d="M478.3,677.6h-1.1v-1.3h1.1V677.6z M477.2,678.8h1.1v6.7h-1.1V678.8z"/>
		<path class="st4" d="M481.5,678.8h1.3v1h-1.3v4.1c0,0.5,0.1,0.6,0.8,0.6h0.5v1H482c-1.1,0-1.6-0.2-1.6-1.5v-4.2h-1.1v-1h1.1v-2
			h1.1V678.8z"/>
		<path class="st4" d="M484.3,684h1.4v1.3c0,1-0.4,1.7-1.4,2v-0.6c0.6-0.2,0.8-0.8,0.7-1.3h-0.8V684z"/>
		<path class="st4" d="M491.3,683.4c0,1,0.9,1.3,1.8,1.3c0.7,0,1.6-0.2,1.6-1c0-0.9-1.1-1-2.2-1.2c-1.1-0.2-2.2-0.6-2.2-1.9
			c0-1.3,1.3-1.9,2.5-1.9c1.5,0,2.6,0.5,2.7,2.1h-1.1c-0.1-0.9-0.8-1.1-1.5-1.1c-0.7,0-1.4,0.2-1.4,0.9c0,0.8,1.2,0.9,2.2,1.2
			c1.1,0.2,2.2,0.6,2.2,1.9c0,1.6-1.5,2.1-2.8,2.1c-1.5,0-2.8-0.6-2.8-2.3H491.3z"/>
		<path class="st4" d="M502.8,683.4c-0.3,1.5-1.4,2.3-2.9,2.3c-2.1,0-3.1-1.5-3.2-3.5c0-2,1.3-3.5,3.1-3.5c2.4,0,3.1,2.2,3,3.8h-5
			c0,1.2,0.6,2.2,2.1,2.2c0.9,0,1.5-0.4,1.7-1.3H502.8z M501.7,681.5c-0.1-1-0.8-1.9-1.9-1.9c-1.1,0-1.8,0.9-1.9,1.9H501.7z"/>
		<path class="st4" d="M510,685.5h-1.1v-0.9h0c-0.4,0.7-1.2,1.1-2.1,1.1c-2.1,0-3.1-1.6-3.1-3.5c0-1.9,1-3.5,3-3.5
			c0.7,0,1.7,0.3,2.2,1h0v-3.4h1.1V685.5z M506.9,684.7c1.5,0,2-1.3,2-2.5c0-1.3-0.6-2.5-2.1-2.5c-1.5,0-2,1.3-2,2.6
			C504.8,683.4,505.5,684.7,506.9,684.7z"/>
		<path class="st4" d="M520.7,685.5h-1.1v-0.9h0c-0.4,0.7-1.2,1.1-2.1,1.1c-2.1,0-3.1-1.6-3.1-3.5c0-1.9,1-3.5,3-3.5
			c0.7,0,1.7,0.3,2.2,1h0v-3.4h1.1V685.5z M517.6,684.7c1.5,0,2-1.3,2-2.5c0-1.3-0.6-2.5-2.1-2.5c-1.5,0-2,1.3-2,2.6
			C515.5,683.4,516.2,684.7,517.6,684.7z"/>
		<path class="st4" d="M525.2,678.6c2.1,0,3.2,1.5,3.2,3.5c0,2-1.1,3.5-3.2,3.5c-2.1,0-3.2-1.5-3.2-3.5
			C522,680.2,523.1,678.6,525.2,678.6z M525.2,684.7c1.1,0,2.1-0.9,2.1-2.5c0-1.6-0.9-2.5-2.1-2.5c-1.1,0-2.1,0.9-2.1,2.5
			C523.2,683.8,524.1,684.7,525.2,684.7z"/>
		<path class="st4" d="M177.4,698.8c-0.3,1.5-1.4,2.3-2.9,2.3c-2.1,0-3.1-1.5-3.2-3.5c0-2,1.3-3.5,3.1-3.5c2.4,0,3.1,2.2,3,3.8h-5
			c0,1.2,0.6,2.2,2.1,2.2c0.9,0,1.5-0.4,1.7-1.3H177.4z M176.3,697c-0.1-1-0.8-1.9-1.9-1.9c-1.1,0-1.8,0.9-1.9,1.9H176.3z"/>
		<path class="st4" d="M179.8,693.1h-1.1v-1.3h1.1V693.1z M178.7,694.3h1.1v6.7h-1.1V694.3z"/>
		<path class="st4" d="M187,701h-1v-1.1h0c-0.5,0.8-1.2,1.2-2.2,1.2c-1.8,0-2.3-1-2.3-2.4v-4.4h1.1v4.5c0,0.8,0.5,1.3,1.4,1.3
			c1.3,0,2-0.9,2-2.1v-3.8h1.1V701z"/>
		<path class="st4" d="M189.3,698.9c0,1,0.9,1.3,1.8,1.3c0.7,0,1.6-0.2,1.6-1c0-0.9-1.1-1-2.2-1.2c-1.1-0.2-2.2-0.6-2.2-1.9
			c0-1.3,1.3-1.9,2.5-1.9c1.5,0,2.6,0.5,2.7,2.1h-1.1c-0.1-0.9-0.8-1.1-1.5-1.1c-0.7,0-1.4,0.2-1.4,0.9c0,0.8,1.2,0.9,2.2,1.2
			c1.1,0.2,2.2,0.6,2.2,1.9c0,1.6-1.5,2.1-2.8,2.1c-1.5,0-2.8-0.6-2.8-2.3H189.3z"/>
		<path class="st4" d="M195.1,694.3h1v1h0c0.5-0.7,1.2-1.1,2.2-1.1c0.8,0,1.6,0.3,1.8,1.1c0.5-0.7,1.2-1.1,2.1-1.1
			c1.3,0,2.2,0.6,2.2,1.9v4.9h-1.1v-4.4c0-0.8-0.2-1.5-1.3-1.5c-1.1,0-1.7,0.7-1.7,1.7v4.2h-1.1v-4.4c0-0.9-0.3-1.5-1.3-1.5
			c-1.3,0-1.8,1.2-1.8,1.7v4.2h-1.1V694.3z"/>
		<path class="st4" d="M209,694.1c2.1,0,3.2,1.5,3.2,3.5c0,2-1.1,3.5-3.2,3.5c-2.1,0-3.2-1.5-3.2-3.5
			C205.7,695.7,206.9,694.1,209,694.1z M209,700.1c1.1,0,2.1-0.9,2.1-2.5c0-1.6-0.9-2.5-2.1-2.5c-1.1,0-2.1,0.9-2.1,2.5
			C206.9,699.2,207.8,700.1,209,700.1z"/>
		<path class="st4" d="M219.5,701h-1.1v-0.9h0c-0.4,0.7-1.2,1.1-2.1,1.1c-2.1,0-3.1-1.6-3.1-3.5c0-1.9,1-3.5,3-3.5
			c0.7,0,1.7,0.3,2.2,1h0v-3.4h1.1V701z M216.4,700.1c1.5,0,2-1.3,2-2.5c0-1.3-0.6-2.5-2.1-2.5c-1.5,0-2,1.3-2,2.6
			C214.3,698.9,215,700.1,216.4,700.1z"/>
		<path class="st4" d="M227.6,694.3h1.3v1h-1.3v4.1c0,0.5,0.1,0.6,0.8,0.6h0.5v1h-0.8c-1.1,0-1.6-0.2-1.6-1.5v-4.2h-1.1v-1h1.1v-2
			h1.1V694.3z"/>
		<path class="st4" d="M235.8,698.8c-0.3,1.5-1.4,2.3-2.9,2.3c-2.1,0-3.1-1.5-3.2-3.5c0-2,1.3-3.5,3.1-3.5c2.4,0,3.1,2.2,3,3.8h-5
			c0,1.2,0.6,2.2,2.1,2.2c0.9,0,1.5-0.4,1.7-1.3H235.8z M234.7,697c-0.1-1-0.8-1.9-1.9-1.9c-1.1,0-1.8,0.9-1.9,1.9H234.7z"/>
		<path class="st4" d="M237,694.3h1v1h0c0.5-0.7,1.2-1.1,2.2-1.1c0.8,0,1.6,0.3,1.8,1.1c0.5-0.7,1.2-1.1,2.1-1.1
			c1.3,0,2.2,0.6,2.2,1.9v4.9h-1.1v-4.4c0-0.8-0.2-1.5-1.3-1.5c-1.1,0-1.7,0.7-1.7,1.7v4.2h-1.1v-4.4c0-0.9-0.3-1.5-1.3-1.5
			c-1.3,0-1.8,1.2-1.8,1.7v4.2H237V694.3z"/>
		<path class="st4" d="M248.1,694.3h1.1v0.9h0c0.4-0.7,1.2-1.1,2.1-1.1c2.1,0,3.1,1.6,3.1,3.5c0,1.9-1,3.5-3,3.5
			c-0.7,0-1.7-0.3-2.2-1h0v3.4h-1.1V694.3z M251.2,695.1c-1.5,0-2,1.3-2,2.5c0,1.3,0.6,2.5,2.1,2.5c1.5,0,2-1.3,2-2.6
			C253.2,696.3,252.6,695.1,251.2,695.1z"/>
		<path class="st4" d="M258.6,694.1c2.1,0,3.2,1.5,3.2,3.5c0,2-1.1,3.5-3.2,3.5c-2.1,0-3.2-1.5-3.2-3.5
			C255.3,695.7,256.5,694.1,258.6,694.1z M258.6,700.1c1.2,0,2.1-0.9,2.1-2.5c0-1.6-0.9-2.5-2.1-2.5c-1.1,0-2.1,0.9-2.1,2.5
			C256.5,699.2,257.4,700.1,258.6,700.1z"/>
		<path class="st4" d="M263.1,694.3h1v1.4h0c0.5-1.1,1.3-1.6,2.5-1.6v1.2c-1.8,0-2.4,1-2.4,2.7v3h-1.1V694.3z"/>
		<path class="st4" d="M273.4,693.1h-1.1v-1.3h1.1V693.1z M272.3,694.3h1.1v6.7h-1.1V694.3z"/>
		<path class="st4" d="M275.1,694.3h1v1.1h0c0.5-0.8,1.2-1.2,2.2-1.2c1.8,0,2.3,1,2.3,2.4v4.4h-1.1v-4.5c0-0.8-0.5-1.3-1.4-1.3
			c-1.3,0-2,0.9-2,2.1v3.8h-1.1V694.3z"/>
		<path class="st4" d="M286.8,696.4c-0.2-0.8-0.7-1.3-1.7-1.3c-1.6,0-2.1,1.3-2.1,2.6c0,1.2,0.6,2.4,1.9,2.4c1.1,0,1.7-0.6,1.8-1.6
			h1.1c-0.2,1.6-1.3,2.6-2.9,2.6c-2,0-3.1-1.4-3.1-3.4c0-2,1-3.6,3.1-3.6c1.5,0,2.7,0.7,2.9,2.3H286.8z"/>
		<path class="st4" d="M290.4,693.1h-1.1v-1.3h1.1V693.1z M289.3,694.3h1.1v6.7h-1.1V694.3z"/>
		<path class="st4" d="M298.1,701H297v-0.9h0c-0.4,0.7-1.2,1.1-2.1,1.1c-2.1,0-3.1-1.6-3.1-3.5c0-1.9,1-3.5,3-3.5
			c0.7,0,1.7,0.3,2.2,1h0v-3.4h1.1V701z M295,700.1c1.5,0,2-1.3,2-2.5c0-1.3-0.6-2.5-2.1-2.5c-1.5,0-2,1.3-2,2.6
			C292.9,698.9,293.5,700.1,295,700.1z"/>
		<path class="st4" d="M300.9,693.1h-1.1v-1.3h1.1V693.1z M299.8,694.3h1.1v6.7h-1.1V694.3z"/>
		<path class="st4" d="M308.6,701h-1.1v-0.9h0c-0.4,0.7-1.2,1.1-2.1,1.1c-2.1,0-3.1-1.6-3.1-3.5c0-1.9,1-3.5,3-3.5
			c0.7,0,1.7,0.3,2.2,1h0v-3.4h1.1V701z M305.5,700.1c1.5,0,2-1.3,2-2.5c0-1.3-0.6-2.5-2.1-2.5c-1.5,0-2,1.3-2,2.6
			C303.4,698.9,304.1,700.1,305.5,700.1z"/>
		<path class="st4" d="M315.8,701h-1v-1.1h0c-0.5,0.8-1.2,1.2-2.2,1.2c-1.8,0-2.3-1-2.3-2.4v-4.4h1.1v4.5c0,0.8,0.5,1.3,1.4,1.3
			c1.3,0,2-0.9,2-2.1v-3.8h1.1V701z"/>
		<path class="st4" d="M317.4,694.3h1v1.1h0c0.5-0.8,1.2-1.2,2.2-1.2c1.8,0,2.3,1,2.3,2.4v4.4h-1.1v-4.5c0-0.8-0.5-1.3-1.4-1.3
			c-1.3,0-2,0.9-2,2.1v3.8h-1.1V694.3z"/>
		<path class="st4" d="M326.1,694.3h1.3v1h-1.3v4.1c0,0.5,0.1,0.6,0.8,0.6h0.5v1h-0.8c-1.1,0-1.6-0.2-1.6-1.5v-4.2h-1.1v-1h1.1v-2
			h1.1V694.3z"/>
		<path class="st4" d="M339.1,701h-1v-1.1h0c-0.5,0.8-1.2,1.2-2.2,1.2c-1.8,0-2.3-1-2.3-2.4v-4.4h1.1v4.5c0,0.8,0.5,1.3,1.4,1.3
			c1.3,0,2-0.9,2-2.1v-3.8h1.1V701z"/>
		<path class="st4" d="M342.3,694.3h1.3v1h-1.3v4.1c0,0.5,0.1,0.6,0.8,0.6h0.5v1h-0.8c-1.1,0-1.6-0.2-1.6-1.5v-4.2H340v-1h1.1v-2
			h1.1V694.3z"/>
		<path class="st4" d="M349.7,691.7h1.1v9.2h-1.1V691.7z"/>
		<path class="st4" d="M358.4,700.9c-0.2,0.1-0.4,0.2-0.8,0.2c-0.6,0-0.9-0.3-0.9-1c-0.6,0.7-1.4,1-2.3,1c-1.2,0-2.2-0.5-2.2-1.9
			c0-1.5,1.1-1.8,2.3-2.1c1.2-0.2,2.2-0.2,2.2-1c0-1-0.8-1.1-1.5-1.1c-0.9,0-1.6,0.3-1.7,1.3h-1.1c0.1-1.7,1.3-2.2,2.8-2.2
			c1.2,0,2.5,0.3,2.5,1.8v3.4c0,0.5,0,0.7,0.3,0.7c0.1,0,0.2,0,0.3-0.1V700.9z M356.7,697.5c-0.4,0.3-1.3,0.3-2,0.5
			c-0.7,0.1-1.3,0.4-1.3,1.2c0,0.7,0.6,1,1.3,1c1.4,0,2-0.9,2-1.5V697.5z"/>
		<path class="st4" d="M359.5,691.7h1.1v3.4h0c0.4-0.7,1.2-1.1,2.1-1.1c2.1,0,3.1,1.6,3.1,3.5c0,1.9-1,3.5-3,3.5
			c-0.7,0-1.7-0.3-2.2-1h0v0.9h-1.1V691.7z M362.6,695.1c-1.5,0-2,1.3-2,2.5c0,1.3,0.6,2.5,2.1,2.5c1.5,0,2-1.3,2-2.6
			C364.7,696.3,364,695.1,362.6,695.1z"/>
		<path class="st4" d="M370,694.1c2.1,0,3.2,1.5,3.2,3.5c0,2-1.1,3.5-3.2,3.5c-2.1,0-3.2-1.5-3.2-3.5
			C366.8,695.7,367.9,694.1,370,694.1z M370,700.1c1.2,0,2.1-0.9,2.1-2.5c0-1.6-0.9-2.5-2.1-2.5c-1.1,0-2.1,0.9-2.1,2.5
			C367.9,699.2,368.8,700.1,370,700.1z"/>
		<path class="st4" d="M374.5,694.3h1v1.4h0c0.5-1.1,1.3-1.6,2.5-1.6v1.2c-1.8,0-2.4,1-2.4,2.7v3h-1.1V694.3z"/>
		<path class="st4" d="M384.3,698.8c-0.3,1.5-1.4,2.3-2.9,2.3c-2.1,0-3.1-1.5-3.2-3.5c0-2,1.3-3.5,3.1-3.5c2.4,0,3.1,2.2,3,3.8h-5
			c0,1.2,0.6,2.2,2.1,2.2c0.9,0,1.5-0.4,1.7-1.3H384.3z M383.2,697c-0.1-1-0.8-1.9-1.9-1.9c-1.1,0-1.8,0.9-1.9,1.9H383.2z"/>
		<path class="st4" d="M396.1,698.8c-0.3,1.5-1.4,2.3-2.9,2.3c-2.1,0-3.1-1.5-3.2-3.5c0-2,1.3-3.5,3.1-3.5c2.4,0,3.1,2.2,3,3.8h-5
			c0,1.2,0.6,2.2,2.1,2.2c0.9,0,1.5-0.4,1.7-1.3H396.1z M395,697c-0.1-1-0.8-1.9-1.9-1.9c-1.1,0-1.8,0.9-1.9,1.9H395z"/>
		<path class="st4" d="M398.8,694.3h1.3v1h-1.3v4.1c0,0.5,0.1,0.6,0.8,0.6h0.5v1h-0.8c-1.1,0-1.6-0.2-1.6-1.5v-4.2h-1.1v-1h1.1v-2
			h1.1V694.3z"/>
		<path class="st4" d="M412.2,701h-1.1v-0.9h0c-0.4,0.7-1.2,1.1-2.1,1.1c-2.1,0-3.1-1.6-3.1-3.5c0-1.9,1-3.5,3-3.5
			c0.7,0,1.7,0.3,2.2,1h0v-3.4h1.1V701z M409.1,700.1c1.5,0,2-1.3,2-2.5c0-1.3-0.6-2.5-2.1-2.5c-1.5,0-2,1.3-2,2.6
			C407.1,698.9,407.7,700.1,409.1,700.1z"/>
		<path class="st4" d="M416.8,694.1c2.1,0,3.2,1.5,3.2,3.5c0,2-1.1,3.5-3.2,3.5c-2.1,0-3.2-1.5-3.2-3.5
			C413.5,695.7,414.7,694.1,416.8,694.1z M416.8,700.1c1.1,0,2.1-0.9,2.1-2.5c0-1.6-0.9-2.5-2.1-2.5c-1.1,0-2.1,0.9-2.1,2.5
			C414.7,699.2,415.6,700.1,416.8,700.1z"/>
		<path class="st4" d="M421.4,691.7h1.1v9.2h-1.1V691.7z"/>
		<path class="st4" d="M427.1,694.1c2.1,0,3.2,1.5,3.2,3.5c0,2-1.1,3.5-3.2,3.5s-3.2-1.5-3.2-3.5
			C423.8,695.7,424.9,694.1,427.1,694.1z M427.1,700.1c1.1,0,2.1-0.9,2.1-2.5c0-1.6-0.9-2.5-2.1-2.5c-1.1,0-2.1,0.9-2.1,2.5
			C425,699.2,425.9,700.1,427.1,700.1z"/>
		<path class="st4" d="M431.5,694.3h1v1.4h0c0.5-1.1,1.3-1.6,2.5-1.6v1.2c-1.8,0-2.4,1-2.4,2.7v3h-1.1V694.3z"/>
		<path class="st4" d="M441.3,698.8c-0.3,1.5-1.4,2.3-2.9,2.3c-2.1,0-3.1-1.5-3.2-3.5c0-2,1.3-3.5,3.1-3.5c2.4,0,3.1,2.2,3,3.8h-5
			c0,1.2,0.6,2.2,2.1,2.2c0.9,0,1.5-0.4,1.7-1.3H441.3z M440.3,697c-0.1-1-0.8-1.9-1.9-1.9c-1.1,0-1.8,0.9-1.9,1.9H440.3z"/>
		<path class="st4" d="M447.4,694.3h1v1h0c0.5-0.7,1.2-1.1,2.2-1.1c0.8,0,1.6,0.3,1.8,1.1c0.5-0.7,1.2-1.1,2.1-1.1
			c1.3,0,2.2,0.6,2.2,1.9v4.9h-1.1v-4.4c0-0.8-0.2-1.5-1.3-1.5c-1.1,0-1.7,0.7-1.7,1.7v4.2h-1.1v-4.4c0-0.9-0.3-1.5-1.3-1.5
			c-1.3,0-1.8,1.2-1.8,1.7v4.2h-1.1V694.3z"/>
		<path class="st4" d="M464.4,700.9c-0.2,0.1-0.4,0.2-0.8,0.2c-0.6,0-0.9-0.3-0.9-1c-0.6,0.7-1.4,1-2.3,1c-1.2,0-2.2-0.5-2.2-1.9
			c0-1.5,1.1-1.8,2.3-2.1c1.2-0.2,2.2-0.2,2.2-1c0-1-0.8-1.1-1.5-1.1c-0.9,0-1.6,0.3-1.7,1.3h-1.1c0.1-1.7,1.3-2.2,2.8-2.2
			c1.2,0,2.5,0.3,2.5,1.8v3.4c0,0.5,0,0.7,0.3,0.7c0.1,0,0.2,0,0.3-0.1V700.9z M462.6,697.5c-0.4,0.3-1.3,0.3-2,0.5
			c-0.7,0.1-1.3,0.4-1.3,1.2c0,0.7,0.6,1,1.3,1c1.4,0,2-0.9,2-1.5V697.5z"/>
		<path class="st4" d="M471.1,700.4c0,2.2-1,3.3-3.1,3.3c-1.3,0-2.7-0.5-2.8-2h1.1c0.1,0.8,1,1.1,1.7,1.1c1.4,0,2-1,2-2.5v-0.4h0
			c-0.4,0.8-1.2,1.2-2.1,1.2c-2,0-3-1.6-3-3.4c0-1.6,0.8-3.5,3.1-3.5c0.8,0,1.6,0.4,2,1.1h0v-1h1V700.4z M470.1,697.5
			c0-1.2-0.5-2.4-1.9-2.4c-1.4,0-2,1.1-2,2.4c0,1.2,0.4,2.5,1.9,2.5C469.5,700.1,470.1,698.7,470.1,697.5z"/>
		<path class="st4" d="M472.8,694.3h1v1.1h0c0.5-0.8,1.2-1.2,2.2-1.2c1.8,0,2.3,1,2.3,2.4v4.4h-1.1v-4.5c0-0.8-0.5-1.3-1.4-1.3
			c-1.3,0-2,0.9-2,2.1v3.8h-1.1V694.3z"/>
		<path class="st4" d="M485.9,700.9c-0.2,0.1-0.4,0.2-0.8,0.2c-0.6,0-0.9-0.3-0.9-1c-0.6,0.7-1.4,1-2.3,1c-1.2,0-2.2-0.5-2.2-1.9
			c0-1.5,1.1-1.8,2.3-2.1c1.2-0.2,2.2-0.2,2.2-1c0-1-0.8-1.1-1.5-1.1c-0.9,0-1.6,0.3-1.7,1.3h-1.1c0.1-1.7,1.3-2.2,2.8-2.2
			c1.2,0,2.5,0.3,2.5,1.8v3.4c0,0.5,0,0.7,0.3,0.7c0.1,0,0.2,0,0.3-0.1V700.9z M484.1,697.5c-0.4,0.3-1.3,0.3-2,0.5
			c-0.7,0.1-1.3,0.4-1.3,1.2c0,0.7,0.6,1,1.3,1c1.4,0,2-0.9,2-1.5V697.5z"/>
		<path class="st4" d="M497.7,700.9c-0.2,0.1-0.4,0.2-0.8,0.2c-0.6,0-0.9-0.3-0.9-1c-0.6,0.7-1.4,1-2.3,1c-1.2,0-2.2-0.5-2.2-1.9
			c0-1.5,1.1-1.8,2.3-2.1c1.2-0.2,2.2-0.2,2.2-1c0-1-0.8-1.1-1.5-1.1c-0.9,0-1.6,0.3-1.7,1.3h-1.1c0.1-1.7,1.3-2.2,2.8-2.2
			c1.2,0,2.5,0.3,2.5,1.8v3.4c0,0.5,0,0.7,0.3,0.7c0.1,0,0.2,0,0.3-0.1V700.9z M495.9,697.5c-0.4,0.3-1.3,0.3-2,0.5
			c-0.7,0.1-1.3,0.4-1.3,1.2c0,0.7,0.6,1,1.3,1c1.4,0,2-0.9,2-1.5V697.5z"/>
		<path class="st4" d="M498.8,691.7h1.1v9.2h-1.1V691.7z"/>
		<path class="st4" d="M502.7,693.1h-1.1v-1.3h1.1V693.1z M501.6,694.3h1.1v6.7h-1.1V694.3z"/>
		<path class="st4" d="M510.4,703.5h-1.1v-3.5h0c-0.4,0.7-1.2,1.1-2.1,1.1c-2.1,0-3.1-1.6-3.1-3.5c0-1.9,1-3.5,3-3.5
			c0.7,0,1.7,0.3,2.2,1h0v-0.9h1.1V703.5z M507.3,700.1c1.5,0,2-1.3,2-2.5c0-1.3-0.6-2.5-2.1-2.5c-1.5,0-2,1.3-2,2.6
			C505.2,698.9,505.9,700.1,507.3,700.1z"/>
		<path class="st4" d="M517.6,701h-1v-1.1h0c-0.5,0.8-1.2,1.2-2.2,1.2c-1.8,0-2.3-1-2.3-2.4v-4.4h1.1v4.5c0,0.8,0.5,1.3,1.4,1.3
			c1.3,0,2-0.9,2-2.1v-3.8h1.1V701z"/>
		<path class="st4" d="M525.2,700.9c-0.2,0.1-0.4,0.2-0.8,0.2c-0.6,0-0.9-0.3-0.9-1c-0.6,0.7-1.4,1-2.3,1c-1.2,0-2.2-0.5-2.2-1.9
			c0-1.5,1.1-1.8,2.3-2.1c1.2-0.2,2.2-0.2,2.2-1c0-1-0.8-1.1-1.5-1.1c-0.9,0-1.6,0.3-1.7,1.3h-1.1c0.1-1.7,1.3-2.2,2.8-2.2
			c1.2,0,2.5,0.3,2.5,1.8v3.4c0,0.5,0,0.7,0.3,0.7c0.1,0,0.2,0,0.3-0.1V700.9z M523.4,697.5c-0.4,0.3-1.3,0.3-2,0.5
			c-0.7,0.1-1.3,0.4-1.3,1.2c0,0.7,0.6,1,1.3,1c1.4,0,2-0.9,2-1.5V697.5z"/>
		<path class="st4" d="M526.4,699.5h1.4v1.4h-1.4V699.5z"/>
		<path class="st4" d="M179.2,713.1c0,2.3-1.3,3.6-3.6,3.6c-2.4,0-3.8-1.1-3.8-3.6v-5.9h1.2v5.9c0,1.6,0.9,2.5,2.6,2.5
			c1.5,0,2.4-0.9,2.4-2.5v-5.9h1.2V713.1z"/>
		<path class="st4" d="M182.5,709.8h1.3v1h-1.3v4.1c0,0.5,0.1,0.6,0.8,0.6h0.5v1H183c-1.1,0-1.6-0.2-1.6-1.5v-4.2h-1.1v-1h1.1v-2
			h1.1V709.8z"/>
		<path class="st4" d="M196,714.3c-0.3,1.5-1.4,2.3-2.9,2.3c-2.1,0-3.1-1.5-3.2-3.5c0-2,1.3-3.5,3.1-3.5c2.4,0,3.1,2.2,3,3.8h-5
			c0,1.2,0.6,2.2,2.1,2.2c0.9,0,1.5-0.4,1.7-1.3H196z M194.9,712.5c-0.1-1-0.8-1.9-1.9-1.9c-1.1,0-1.8,0.9-1.9,1.9H194.9z"/>
		<path class="st4" d="M197.2,709.8h1v1.1h0c0.5-0.8,1.2-1.2,2.2-1.2c1.8,0,2.3,1,2.3,2.4v4.4h-1.1v-4.5c0-0.8-0.5-1.3-1.4-1.3
			c-1.3,0-2,0.9-2,2.1v3.8h-1.1V709.8z"/>
		<path class="st4" d="M205.6,708.6h-1.1v-1.3h1.1V708.6z M204.5,709.8h1.1v6.7h-1.1V709.8z"/>
		<path class="st4" d="M207.3,709.8h1v1h0c0.5-0.7,1.2-1.1,2.2-1.1c0.8,0,1.6,0.3,1.8,1.1c0.5-0.7,1.2-1.1,2.1-1.1
			c1.3,0,2.2,0.6,2.2,1.9v4.9h-1.1v-4.4c0-0.8-0.2-1.5-1.3-1.5c-1.1,0-1.7,0.7-1.7,1.7v4.2h-1.1v-4.4c0-0.9-0.3-1.5-1.3-1.5
			c-1.3,0-1.8,1.2-1.8,1.7v4.2h-1.1V709.8z"/>
		<path class="st4" d="M229.4,716.4c-0.2,0.1-0.4,0.2-0.8,0.2c-0.6,0-0.9-0.3-0.9-1c-0.6,0.7-1.4,1-2.4,1c-1.2,0-2.2-0.5-2.2-1.9
			c0-1.5,1.1-1.8,2.3-2.1c1.2-0.2,2.2-0.2,2.2-1c0-1-0.8-1.1-1.5-1.1c-0.9,0-1.6,0.3-1.7,1.3h-1.1c0.1-1.7,1.3-2.2,2.8-2.2
			c1.2,0,2.5,0.3,2.5,1.8v3.4c0,0.5,0,0.8,0.3,0.8c0.1,0,0.2,0,0.3-0.1V716.4z M227.6,713c-0.4,0.3-1.3,0.3-2,0.5
			c-0.7,0.1-1.3,0.4-1.3,1.2c0,0.7,0.6,1,1.3,1c1.4,0,2-0.9,2-1.5V713z"/>
		<path class="st4" d="M236.4,716.4h-1.1v-0.9h0c-0.4,0.7-1.2,1.1-2.1,1.1c-2.1,0-3.1-1.6-3.1-3.5c0-1.9,1-3.5,3-3.5
			c0.7,0,1.7,0.3,2.2,1h0v-3.4h1.1V716.4z M233.3,715.6c1.5,0,2-1.3,2-2.5c0-1.3-0.6-2.5-2.1-2.5c-1.5,0-2,1.3-2,2.6
			C231.2,714.4,231.9,715.6,233.3,715.6z"/>
		<path class="st4" d="M243.3,709.8h1v1h0c0.5-0.7,1.2-1.1,2.2-1.1c0.8,0,1.6,0.3,1.8,1.1c0.5-0.7,1.2-1.1,2.1-1.1
			c1.3,0,2.2,0.6,2.2,1.9v4.9h-1.1v-4.4c0-0.8-0.2-1.5-1.3-1.5c-1.1,0-1.7,0.7-1.7,1.7v4.2h-1.1v-4.4c0-0.9-0.3-1.5-1.3-1.5
			c-1.3,0-1.8,1.2-1.8,1.7v4.2h-1.1V709.8z"/>
		<path class="st4" d="M255.5,708.6h-1.1v-1.3h1.1V708.6z M254.4,709.8h1.1v6.7h-1.1V709.8z"/>
		<path class="st4" d="M257.2,709.8h1v1.1h0c0.5-0.8,1.2-1.2,2.2-1.2c1.8,0,2.3,1,2.3,2.4v4.4h-1.1v-4.5c0-0.8-0.5-1.3-1.4-1.3
			c-1.3,0-2,0.9-2,2.1v3.8h-1.1V709.8z"/>
		<path class="st4" d="M265.5,708.6h-1.1v-1.3h1.1V708.6z M264.4,709.8h1.1v6.7h-1.1V709.8z"/>
		<path class="st4" d="M267.2,709.8h1v1h0c0.5-0.7,1.2-1.1,2.2-1.1c0.8,0,1.6,0.3,1.8,1.1c0.5-0.7,1.2-1.1,2.1-1.1
			c1.3,0,2.2,0.6,2.2,1.9v4.9h-1.1v-4.4c0-0.8-0.2-1.5-1.3-1.5c-1.1,0-1.7,0.7-1.7,1.7v4.2h-1.1v-4.4c0-0.9-0.3-1.5-1.3-1.5
			c-1.3,0-1.8,1.2-1.8,1.7v4.2h-1.1V709.8z"/>
		<path class="st4" d="M286.5,716.4h-1.2l-2.5-6.7h1.2l1.9,5.6h0l1.8-5.6h1.1L286.5,716.4z"/>
		<path class="st4" d="M295.6,714.3c-0.3,1.5-1.4,2.3-2.9,2.3c-2.1,0-3.1-1.5-3.2-3.5c0-2,1.3-3.5,3.1-3.5c2.4,0,3.1,2.2,3,3.8h-5
			c0,1.2,0.6,2.2,2.1,2.2c0.9,0,1.5-0.4,1.7-1.3H295.6z M294.5,712.5c-0.1-1-0.8-1.9-1.9-1.9c-1.1,0-1.8,0.9-1.9,1.9H294.5z"/>
		<path class="st4" d="M296.8,709.8h1v1.1h0c0.5-0.8,1.2-1.2,2.2-1.2c1.8,0,2.3,1,2.3,2.4v4.4h-1.1v-4.5c0-0.8-0.5-1.3-1.4-1.3
			c-1.3,0-2,0.9-2,2.1v3.8h-1.1V709.8z"/>
		<path class="st4" d="M305.2,708.6h-1.1v-1.3h1.1V708.6z M304.1,709.8h1.1v6.7h-1.1V709.8z"/>
		<path class="st4" d="M312.8,716.4c-0.2,0.1-0.4,0.2-0.8,0.2c-0.6,0-0.9-0.3-0.9-1c-0.6,0.7-1.4,1-2.4,1c-1.2,0-2.2-0.5-2.2-1.9
			c0-1.5,1.1-1.8,2.3-2.1c1.2-0.2,2.2-0.2,2.2-1c0-1-0.8-1.1-1.5-1.1c-0.9,0-1.6,0.3-1.7,1.3h-1.1c0.1-1.7,1.3-2.2,2.8-2.2
			c1.2,0,2.5,0.3,2.5,1.8v3.4c0,0.5,0,0.8,0.3,0.8c0.1,0,0.2,0,0.3-0.1V716.4z M311,713c-0.4,0.3-1.3,0.3-2,0.5
			c-0.7,0.1-1.3,0.4-1.3,1.2c0,0.7,0.6,1,1.3,1c1.4,0,2-0.9,2-1.5V713z"/>
		<path class="st4" d="M313.8,709.8h1v1h0c0.5-0.7,1.2-1.1,2.2-1.1c0.8,0,1.6,0.3,1.8,1.1c0.5-0.7,1.2-1.1,2.1-1.1
			c1.3,0,2.2,0.6,2.2,1.9v4.9h-1.1v-4.4c0-0.8-0.2-1.5-1.3-1.5c-1.1,0-1.7,0.7-1.7,1.7v4.2h-1.1v-4.4c0-0.9-0.3-1.5-1.3-1.5
			c-1.3,0-1.8,1.2-1.8,1.7v4.2h-1.1V709.8z"/>
		<path class="st4" d="M325.1,715h1.4v1.3c0,1-0.4,1.7-1.4,2v-0.6c0.6-0.2,0.8-0.8,0.7-1.3h-0.8V715z"/>
		<path class="st4" d="M339.6,719h-1.1v-3.5h0c-0.4,0.7-1.2,1.1-2.1,1.1c-2.1,0-3.1-1.6-3.1-3.5c0-1.9,1-3.5,3-3.5
			c0.7,0,1.7,0.3,2.2,1h0v-0.9h1.1V719z M336.5,715.6c1.5,0,2-1.3,2-2.5c0-1.3-0.6-2.5-2.1-2.5c-1.5,0-2,1.3-2,2.6
			C334.4,714.4,335.1,715.6,336.5,715.6z"/>
		<path class="st4" d="M346.8,716.4h-1v-1.1h0c-0.5,0.8-1.2,1.2-2.2,1.2c-1.8,0-2.3-1-2.3-2.4v-4.4h1.1v4.5c0,0.8,0.5,1.3,1.4,1.3
			c1.3,0,2-0.9,2-2.1v-3.8h1.1V716.4z"/>
		<path class="st4" d="M349.6,708.6h-1.1v-1.3h1.1V708.6z M348.5,709.8h1.1v6.7h-1.1V709.8z"/>
		<path class="st4" d="M352,714.3c0,1,0.9,1.3,1.8,1.3c0.7,0,1.6-0.2,1.6-1c0-0.9-1.1-1-2.2-1.2c-1.1-0.2-2.2-0.6-2.2-1.9
			c0-1.3,1.3-1.9,2.5-1.9c1.5,0,2.6,0.5,2.7,2.1h-1.1c-0.1-0.9-0.8-1.1-1.5-1.1c-0.7,0-1.4,0.2-1.4,0.9c0,0.8,1.2,0.9,2.2,1.2
			c1.1,0.2,2.2,0.6,2.2,1.9c0,1.6-1.5,2.1-2.8,2.1c-1.5,0-2.8-0.6-2.8-2.3H352z"/>
		<path class="st4" d="M363,709.8h1v1.1h0c0.5-0.8,1.2-1.2,2.2-1.2c1.8,0,2.3,1,2.3,2.4v4.4h-1.1v-4.5c0-0.8-0.5-1.3-1.4-1.3
			c-1.3,0-2,0.9-2,2.1v3.8H363V709.8z"/>
		<path class="st4" d="M373.1,709.6c2.1,0,3.2,1.5,3.2,3.5c0,2-1.1,3.5-3.2,3.5s-3.2-1.5-3.2-3.5
			C369.8,711.2,370.9,709.6,373.1,709.6z M373.1,715.6c1.1,0,2.1-0.9,2.1-2.5c0-1.6-0.9-2.5-2.1-2.5c-1.1,0-2.1,0.9-2.1,2.5
			C371,714.7,371.9,715.6,373.1,715.6z"/>
		<path class="st4" d="M378.3,714.3c0,1,0.9,1.3,1.8,1.3c0.7,0,1.6-0.2,1.6-1c0-0.9-1.1-1-2.2-1.2c-1.1-0.2-2.2-0.6-2.2-1.9
			c0-1.3,1.3-1.9,2.5-1.9c1.5,0,2.6,0.5,2.7,2.1h-1.1c-0.1-0.9-0.8-1.1-1.5-1.1c-0.7,0-1.4,0.2-1.4,0.9c0,0.8,1.2,0.9,2.2,1.2
			c1.1,0.2,2.2,0.6,2.2,1.9c0,1.6-1.5,2.1-2.8,2.1c-1.5,0-2.8-0.6-2.8-2.3H378.3z"/>
		<path class="st4" d="M385.6,709.8h1.3v1h-1.3v4.1c0,0.5,0.1,0.6,0.8,0.6h0.5v1H386c-1.1,0-1.6-0.2-1.6-1.5v-4.2h-1.1v-1h1.1v-2
			h1.1V709.8z"/>
		<path class="st4" d="M388.1,709.8h1v1.4h0c0.5-1.1,1.3-1.6,2.5-1.6v1.2c-1.8,0-2.4,1-2.4,2.7v3h-1.1V709.8z"/>
		<path class="st4" d="M397.9,716.4h-1v-1.1h0c-0.5,0.8-1.2,1.2-2.2,1.2c-1.8,0-2.3-1-2.3-2.4v-4.4h1.1v4.5c0,0.8,0.5,1.3,1.4,1.3
			c1.3,0,2-0.9,2-2.1v-3.8h1.1V716.4z"/>
		<path class="st4" d="M405.5,716.4h-1.1v-0.9h0c-0.4,0.7-1.2,1.1-2.1,1.1c-2.1,0-3.1-1.6-3.1-3.5c0-1.9,1-3.5,3-3.5
			c0.7,0,1.7,0.3,2.2,1h0v-3.4h1.1V716.4z M402.4,715.6c1.5,0,2-1.3,2-2.5c0-1.3-0.6-2.5-2.1-2.5c-1.5,0-2,1.3-2,2.6
			C400.4,714.4,401,715.6,402.4,715.6z"/>
		<path class="st4" d="M418.1,714.3c-0.3,1.5-1.4,2.3-2.9,2.3c-2.1,0-3.1-1.5-3.2-3.5c0-2,1.3-3.5,3.1-3.5c2.4,0,3.1,2.2,3,3.8h-5
			c0,1.2,0.6,2.2,2.1,2.2c0.9,0,1.5-0.4,1.7-1.3H418.1z M417.1,712.5c-0.1-1-0.8-1.9-1.9-1.9c-1.1,0-1.8,0.9-1.9,1.9H417.1z"/>
		<path class="st4" d="M421.2,712.9l-2.3-3.2h1.4l1.6,2.3l1.7-2.3h1.3l-2.3,3.1l2.6,3.6h-1.4l-1.9-2.8l-1.9,2.8h-1.3L421.2,712.9z"
			/>
		<path class="st4" d="M431.8,714.3c-0.3,1.5-1.4,2.3-2.9,2.3c-2.1,0-3.1-1.5-3.2-3.5c0-2,1.3-3.5,3.1-3.5c2.4,0,3.1,2.2,3,3.8h-5
			c0,1.2,0.6,2.2,2.1,2.2c0.9,0,1.5-0.4,1.7-1.3H431.8z M430.7,712.5c-0.1-1-0.8-1.9-1.9-1.9c-1.1,0-1.8,0.9-1.9,1.9H430.7z"/>
		<path class="st4" d="M433,709.8h1v1.4h0c0.5-1.1,1.3-1.6,2.5-1.6v1.2c-1.8,0-2.4,1-2.4,2.7v3H433V709.8z"/>
		<path class="st4" d="M441.6,711.9c-0.2-0.8-0.7-1.3-1.7-1.3c-1.6,0-2.1,1.3-2.1,2.6c0,1.2,0.6,2.4,2,2.4c1.1,0,1.7-0.6,1.8-1.6
			h1.1c-0.2,1.6-1.3,2.6-2.9,2.6c-2,0-3.1-1.4-3.1-3.4c0-2,1-3.6,3.1-3.6c1.5,0,2.7,0.7,2.9,2.3H441.6z"/>
		<path class="st4" d="M445.2,708.6h-1.1v-1.3h1.1V708.6z M444.1,709.8h1.1v6.7h-1.1V709.8z"/>
		<path class="st4" d="M448.4,709.8h1.3v1h-1.3v4.1c0,0.5,0.1,0.6,0.8,0.6h0.5v1h-0.8c-1.1,0-1.6-0.2-1.6-1.5v-4.2h-1.1v-1h1.1v-2
			h1.1V709.8z"/>
		<path class="st4" d="M456.8,716.4c-0.2,0.1-0.4,0.2-0.8,0.2c-0.6,0-0.9-0.3-0.9-1c-0.6,0.7-1.4,1-2.3,1c-1.2,0-2.2-0.5-2.2-1.9
			c0-1.5,1.1-1.8,2.3-2.1c1.2-0.2,2.2-0.2,2.2-1c0-1-0.8-1.1-1.5-1.1c-0.9,0-1.6,0.3-1.7,1.3h-1.1c0.1-1.7,1.3-2.2,2.8-2.2
			c1.2,0,2.5,0.3,2.5,1.8v3.4c0,0.5,0,0.8,0.3,0.8c0.1,0,0.2,0,0.3-0.1V716.4z M455.1,713c-0.4,0.3-1.3,0.3-2,0.5
			c-0.7,0.1-1.3,0.4-1.3,1.2c0,0.7,0.6,1,1.3,1c1.4,0,2-0.9,2-1.5V713z"/>
		<path class="st4" d="M459.4,709.8h1.3v1h-1.3v4.1c0,0.5,0.1,0.6,0.8,0.6h0.5v1h-0.8c-1.1,0-1.6-0.2-1.6-1.5v-4.2h-1.1v-1h1.1v-2
			h1.1V709.8z"/>
		<path class="st4" d="M463.1,708.6H462v-1.3h1.1V708.6z M462,709.8h1.1v6.7H462V709.8z"/>
		<path class="st4" d="M467.7,709.6c2.1,0,3.2,1.5,3.2,3.5c0,2-1.1,3.5-3.2,3.5c-2.1,0-3.2-1.5-3.2-3.5
			C464.4,711.2,465.5,709.6,467.7,709.6z M467.7,715.6c1.1,0,2.1-0.9,2.1-2.5c0-1.6-0.9-2.5-2.1-2.5c-1.1,0-2.1,0.9-2.1,2.5
			C465.6,714.7,466.5,715.6,467.7,715.6z"/>
		<path class="st4" d="M472.2,709.8h1v1.1h0c0.5-0.8,1.2-1.2,2.2-1.2c1.8,0,2.3,1,2.3,2.4v4.4h-1.1v-4.5c0-0.8-0.5-1.3-1.4-1.3
			c-1.3,0-2,0.9-2,2.1v3.8h-1.1V709.8z"/>
		<path class="st4" d="M490.1,716.4h-1v-1.1h0c-0.5,0.8-1.2,1.2-2.2,1.2c-1.8,0-2.3-1-2.3-2.4v-4.4h1.1v4.5c0,0.8,0.5,1.3,1.4,1.3
			c1.3,0,2-0.9,2-2.1v-3.8h1.1V716.4z"/>
		<path class="st4" d="M491.8,707.2h1.1v9.2h-1.1V707.2z"/>
		<path class="st4" d="M494.7,707.2h1.1v9.2h-1.1V707.2z"/>
		<path class="st4" d="M503.4,716.4c-0.2,0.1-0.4,0.2-0.8,0.2c-0.6,0-0.9-0.3-0.9-1c-0.6,0.7-1.4,1-2.3,1c-1.2,0-2.2-0.5-2.2-1.9
			c0-1.5,1.1-1.8,2.3-2.1c1.2-0.2,2.2-0.2,2.2-1c0-1-0.8-1.1-1.5-1.1c-0.9,0-1.6,0.3-1.7,1.3h-1.1c0.1-1.7,1.3-2.2,2.8-2.2
			c1.2,0,2.5,0.3,2.5,1.8v3.4c0,0.5,0,0.8,0.3,0.8c0.1,0,0.2,0,0.3-0.1V716.4z M501.6,713c-0.4,0.3-1.3,0.3-2,0.5
			c-0.7,0.1-1.3,0.4-1.3,1.2c0,0.7,0.6,1,1.3,1c1.4,0,2-0.9,2-1.5V713z"/>
		<path class="st4" d="M504.4,709.8h1v1h0c0.5-0.7,1.2-1.1,2.2-1.1c0.8,0,1.6,0.3,1.8,1.1c0.5-0.7,1.2-1.1,2.1-1.1
			c1.3,0,2.2,0.6,2.2,1.9v4.9h-1.1v-4.4c0-0.8-0.2-1.5-1.3-1.5c-1.1,0-1.7,0.7-1.7,1.7v4.2h-1.1v-4.4c0-0.9-0.3-1.5-1.3-1.5
			c-1.3,0-1.8,1.2-1.8,1.7v4.2h-1.1V709.8z"/>
		<path class="st4" d="M520,711.9c-0.2-0.8-0.7-1.3-1.7-1.3c-1.6,0-2.1,1.3-2.1,2.6c0,1.2,0.6,2.4,2,2.4c1.1,0,1.7-0.6,1.8-1.6h1.1
			c-0.2,1.6-1.3,2.6-2.9,2.6c-2,0-3.1-1.4-3.1-3.4c0-2,1-3.6,3.1-3.6c1.5,0,2.7,0.7,2.9,2.3H520z"/>
		<path class="st4" d="M525.2,709.6c2.1,0,3.2,1.5,3.2,3.5c0,2-1.1,3.5-3.2,3.5c-2.1,0-3.2-1.5-3.2-3.5
			C522,711.2,523.1,709.6,525.2,709.6z M525.2,715.6c1.1,0,2.1-0.9,2.1-2.5c0-1.6-0.9-2.5-2.1-2.5c-1.1,0-2.1,0.9-2.1,2.5
			C523.2,714.7,524.1,715.6,525.2,715.6z"/>
		<path class="st4" d="M209.4,722.7h1.1v9.2h-1.1V722.7z"/>
		<path class="st4" d="M218.1,731.9c-0.2,0.1-0.4,0.2-0.8,0.2c-0.6,0-0.9-0.3-0.9-1c-0.6,0.7-1.4,1-2.3,1c-1.2,0-2.2-0.5-2.2-1.9
			c0-1.5,1.1-1.8,2.3-2.1c1.2-0.2,2.2-0.2,2.2-1c0-1-0.8-1.1-1.5-1.1c-0.9,0-1.6,0.3-1.7,1.3h-1.1c0.1-1.7,1.3-2.2,2.8-2.2
			c1.2,0,2.5,0.3,2.5,1.8v3.4c0,0.5,0,0.7,0.3,0.7c0.1,0,0.2,0,0.3-0.1V731.9z M216.3,728.5c-0.4,0.3-1.3,0.3-2,0.5
			c-0.7,0.1-1.3,0.4-1.3,1.2c0,0.7,0.6,1,1.3,1c1.4,0,2-0.9,2-1.5V728.5z"/>
		<path class="st4" d="M219.2,722.7h1.1v3.4h0c0.4-0.7,1.2-1.1,2.1-1.1c2.1,0,3.1,1.6,3.1,3.5c0,1.9-1,3.5-3,3.5
			c-0.7,0-1.7-0.3-2.2-1h0v0.9h-1.1V722.7z M222.3,726.1c-1.5,0-2,1.3-2,2.5c0,1.3,0.6,2.5,2.1,2.5c1.5,0,2-1.3,2-2.6
			C224.3,727.3,223.7,726.1,222.3,726.1z"/>
		<path class="st4" d="M229.7,725.1c2.1,0,3.2,1.5,3.2,3.5c0,2-1.1,3.5-3.2,3.5c-2.1,0-3.2-1.5-3.2-3.5
			C226.4,726.6,227.5,725.1,229.7,725.1z M229.7,731.1c1.1,0,2.1-0.9,2.1-2.5c0-1.6-0.9-2.5-2.1-2.5c-1.1,0-2.1,0.9-2.1,2.5
			C227.6,730.2,228.5,731.1,229.7,731.1z"/>
		<path class="st4" d="M234.1,725.3h1v1.4h0c0.5-1.1,1.3-1.6,2.5-1.6v1.2c-1.8,0-2.4,1-2.4,2.7v3h-1.1V725.3z"/>
		<path class="st4" d="M239.6,724.1h-1.1v-1.3h1.1V724.1z M238.5,725.3h1.1v6.7h-1.1V725.3z"/>
		<path class="st4" d="M242,729.8c0,1,0.9,1.3,1.8,1.3c0.7,0,1.6-0.2,1.6-1c0-0.9-1.1-1-2.2-1.2c-1.1-0.2-2.2-0.6-2.2-1.9
			c0-1.3,1.3-1.9,2.5-1.9c1.5,0,2.6,0.5,2.7,2.1h-1.1c-0.1-0.9-0.8-1.1-1.5-1.1c-0.7,0-1.4,0.2-1.4,0.9c0,0.8,1.2,0.9,2.2,1.2
			c1.1,0.2,2.2,0.6,2.2,1.9c0,1.6-1.5,2.1-2.8,2.1c-1.5,0-2.8-0.6-2.8-2.3H242z"/>
		<path class="st4" d="M251.4,725.3h1v1.1h0c0.5-0.8,1.2-1.2,2.2-1.2c1.8,0,2.3,1,2.3,2.4v4.4h-1.1v-4.5c0-0.8-0.5-1.3-1.4-1.3
			c-1.3,0-2,0.9-2,2.1v3.8h-1.1V725.3z"/>
		<path class="st4" d="M259.7,724.1h-1.1v-1.3h1.1V724.1z M258.6,725.3h1.1v6.7h-1.1V725.3z"/>
		<path class="st4" d="M262.1,729.8c0,1,0.9,1.3,1.8,1.3c0.7,0,1.6-0.2,1.6-1c0-0.9-1.1-1-2.2-1.2c-1.1-0.2-2.2-0.6-2.2-1.9
			c0-1.3,1.3-1.9,2.5-1.9c1.5,0,2.6,0.5,2.7,2.1h-1.1c-0.1-0.9-0.8-1.1-1.5-1.1c-0.7,0-1.4,0.2-1.4,0.9c0,0.8,1.2,0.9,2.2,1.2
			c1.1,0.2,2.2,0.6,2.2,1.9c0,1.6-1.5,2.1-2.8,2.1c-1.5,0-2.8-0.6-2.8-2.3H262.1z"/>
		<path class="st4" d="M269,724.1h-1.1v-1.3h1.1V724.1z M267.9,725.3h1.1v6.7h-1.1V725.3z"/>
		<path class="st4" d="M279.9,731.9h-1v-1.1h0c-0.5,0.8-1.2,1.2-2.2,1.2c-1.8,0-2.3-1-2.3-2.4v-4.4h1.1v4.5c0,0.8,0.5,1.3,1.4,1.3
			c1.3,0,2-0.9,2-2.1v-3.8h1.1V731.9z"/>
		<path class="st4" d="M283,725.3h1.3v1H283v4.1c0,0.5,0.1,0.6,0.8,0.6h0.5v1h-0.8c-1.1,0-1.6-0.2-1.6-1.5v-4.2h-1.1v-1h1.1v-2h1.1
			V725.3z"/>
		<path class="st4" d="M295.1,731.9c-0.2,0.1-0.4,0.2-0.8,0.2c-0.6,0-0.9-0.3-0.9-1c-0.6,0.7-1.4,1-2.3,1c-1.2,0-2.2-0.5-2.2-1.9
			c0-1.5,1.1-1.8,2.3-2.1c1.2-0.2,2.2-0.2,2.2-1c0-1-0.8-1.1-1.5-1.1c-0.9,0-1.6,0.3-1.7,1.3h-1.1c0.1-1.7,1.3-2.2,2.8-2.2
			c1.2,0,2.5,0.3,2.5,1.8v3.4c0,0.5,0,0.7,0.3,0.7c0.1,0,0.2,0,0.3-0.1V731.9z M293.3,728.5c-0.4,0.3-1.3,0.3-2,0.5
			c-0.7,0.1-1.3,0.4-1.3,1.2c0,0.7,0.6,1,1.3,1c1.4,0,2-0.9,2-1.5V728.5z"/>
		<path class="st4" d="M296.2,722.7h1.1v9.2h-1.1V722.7z"/>
		<path class="st4" d="M300.1,724.1H299v-1.3h1.1V724.1z M299,725.3h1.1v6.7H299V725.3z"/>
		<path class="st4" d="M307.8,734.5h-1.1V731h0c-0.4,0.7-1.2,1.1-2.1,1.1c-2.1,0-3.1-1.6-3.1-3.5c0-1.9,1-3.5,3-3.5
			c0.7,0,1.7,0.3,2.2,1h0v-0.9h1.1V734.5z M304.7,731.1c1.5,0,2-1.3,2-2.5c0-1.3-0.6-2.5-2.1-2.5c-1.5,0-2,1.3-2,2.6
			C302.6,729.9,303.3,731.1,304.7,731.1z"/>
		<path class="st4" d="M315,731.9h-1v-1.1h0c-0.5,0.8-1.2,1.2-2.2,1.2c-1.8,0-2.3-1-2.3-2.4v-4.4h1.1v4.5c0,0.8,0.5,1.3,1.4,1.3
			c1.3,0,2-0.9,2-2.1v-3.8h1.1V731.9z"/>
		<path class="st4" d="M317.8,724.1h-1.1v-1.3h1.1V724.1z M316.7,725.3h1.1v6.7h-1.1V725.3z"/>
		<path class="st4" d="M319.6,725.3h1.1v0.9h0c0.4-0.7,1.2-1.1,2.1-1.1c2.1,0,3.1,1.6,3.1,3.5c0,1.9-1,3.5-3,3.5
			c-0.7,0-1.7-0.3-2.2-1h0v3.4h-1.1V725.3z M322.7,726.1c-1.5,0-2,1.3-2,2.5c0,1.3,0.6,2.5,2.1,2.5c1.5,0,2-1.3,2-2.6
			C324.7,727.3,324.1,726.1,322.7,726.1z"/>
		<path class="st4" d="M336.4,729.8c-0.3,1.5-1.4,2.3-2.9,2.3c-2.1,0-3.1-1.5-3.2-3.5c0-2,1.3-3.5,3.1-3.5c2.4,0,3.1,2.2,3,3.8h-5
			c0,1.2,0.6,2.2,2.1,2.2c0.9,0,1.5-0.4,1.7-1.3H336.4z M335.4,728c-0.1-1-0.8-1.9-1.9-1.9c-1.1,0-1.8,0.9-1.9,1.9H335.4z"/>
		<path class="st4" d="M339.5,728.4l-2.3-3.2h1.4l1.6,2.3l1.7-2.3h1.3l-2.3,3.1l2.6,3.6H342l-1.9-2.8l-1.9,2.8H337L339.5,728.4z"/>
		<path class="st4" d="M353.6,729.8c-0.3,1.5-1.4,2.3-2.9,2.3c-2.1,0-3.1-1.5-3.2-3.5c0-2,1.3-3.5,3.1-3.5c2.4,0,3.1,2.2,3,3.8h-5
			c0,1.2,0.6,2.2,2.1,2.2c0.9,0,1.5-0.4,1.7-1.3H353.6z M352.6,728c-0.1-1-0.8-1.9-1.9-1.9c-1.1,0-1.8,0.9-1.9,1.9H352.6z"/>
		<path class="st4" d="M360.8,731.9c-0.2,0.1-0.4,0.2-0.8,0.2c-0.6,0-0.9-0.3-0.9-1c-0.6,0.7-1.4,1-2.3,1c-1.2,0-2.2-0.5-2.2-1.9
			c0-1.5,1.1-1.8,2.3-2.1c1.2-0.2,2.2-0.2,2.2-1c0-1-0.8-1.1-1.5-1.1c-0.9,0-1.6,0.3-1.7,1.3h-1.1c0.1-1.7,1.3-2.2,2.8-2.2
			c1.2,0,2.5,0.3,2.5,1.8v3.4c0,0.5,0,0.7,0.3,0.7c0.1,0,0.2,0,0.3-0.1V731.9z M359,728.5c-0.4,0.3-1.3,0.3-2,0.5
			c-0.7,0.1-1.3,0.4-1.3,1.2c0,0.7,0.6,1,1.3,1c1.4,0,2-0.9,2-1.5V728.5z"/>
		<path class="st4" d="M369.9,727.4c-0.2-0.8-0.7-1.3-1.7-1.3c-1.6,0-2.1,1.3-2.1,2.6c0,1.2,0.6,2.4,1.9,2.4c1.1,0,1.7-0.6,1.8-1.6
			h1.1c-0.2,1.6-1.3,2.6-2.9,2.6c-2,0-3.1-1.4-3.1-3.4c0-2,1-3.6,3.1-3.6c1.5,0,2.7,0.7,2.9,2.3H369.9z"/>
		<path class="st4" d="M375.2,725.1c2.1,0,3.2,1.5,3.2,3.5c0,2-1.1,3.5-3.2,3.5c-2.1,0-3.2-1.5-3.2-3.5
			C372,726.6,373.1,725.1,375.2,725.1z M375.2,731.1c1.1,0,2.1-0.9,2.1-2.5c0-1.6-0.9-2.5-2.1-2.5s-2.1,0.9-2.1,2.5
			C373.1,730.2,374.1,731.1,375.2,731.1z"/>
		<path class="st4" d="M379.7,725.3h1v1h0c0.5-0.7,1.2-1.1,2.2-1.1c0.8,0,1.6,0.3,1.8,1.1c0.5-0.7,1.2-1.1,2.1-1.1
			c1.3,0,2.2,0.6,2.2,1.9v4.9H388v-4.4c0-0.8-0.2-1.5-1.3-1.5c-1.1,0-1.7,0.7-1.7,1.7v4.2h-1.1v-4.4c0-0.9-0.3-1.5-1.3-1.5
			c-1.3,0-1.8,1.2-1.8,1.7v4.2h-1.1V725.3z"/>
		<path class="st4" d="M390.8,725.3h1v1h0c0.5-0.7,1.2-1.1,2.2-1.1c0.8,0,1.6,0.3,1.8,1.1c0.5-0.7,1.2-1.1,2.1-1.1
			c1.3,0,2.2,0.6,2.2,1.9v4.9H399v-4.4c0-0.8-0.2-1.5-1.3-1.5c-1.1,0-1.7,0.7-1.7,1.7v4.2h-1.1v-4.4c0-0.9-0.3-1.5-1.3-1.5
			c-1.3,0-1.8,1.2-1.8,1.7v4.2h-1.1V725.3z"/>
		<path class="st4" d="M404.6,725.1c2.1,0,3.2,1.5,3.2,3.5c0,2-1.1,3.5-3.2,3.5c-2.1,0-3.2-1.5-3.2-3.5
			C401.4,726.6,402.5,725.1,404.6,725.1z M404.6,731.1c1.2,0,2.1-0.9,2.1-2.5c0-1.6-0.9-2.5-2.1-2.5c-1.1,0-2.1,0.9-2.1,2.5
			C402.6,730.2,403.5,731.1,404.6,731.1z"/>
		<path class="st4" d="M415.1,731.9H414V731h0c-0.4,0.7-1.2,1.1-2.1,1.1c-2.1,0-3.1-1.6-3.1-3.5c0-1.9,1-3.5,3-3.5
			c0.7,0,1.7,0.3,2.2,1h0v-3.4h1.1V731.9z M412,731.1c1.5,0,2-1.3,2-2.5c0-1.3-0.6-2.5-2.1-2.5c-1.5,0-2,1.3-2,2.6
			C410,729.9,410.6,731.1,412,731.1z"/>
		<path class="st4" d="M419.7,725.1c2.1,0,3.2,1.5,3.2,3.5c0,2-1.1,3.5-3.2,3.5s-3.2-1.5-3.2-3.5
			C416.5,726.6,417.6,725.1,419.7,725.1z M419.7,731.1c1.1,0,2.1-0.9,2.1-2.5c0-1.6-0.9-2.5-2.1-2.5c-1.1,0-2.1,0.9-2.1,2.5
			C417.6,730.2,418.5,731.1,419.7,731.1z"/>
		<path class="st4" d="M432.3,727.4c-0.2-0.8-0.7-1.3-1.7-1.3c-1.6,0-2.1,1.3-2.1,2.6c0,1.2,0.6,2.4,2,2.4c1.1,0,1.7-0.6,1.8-1.6
			h1.1c-0.2,1.6-1.3,2.6-2.9,2.6c-2,0-3.1-1.4-3.1-3.4c0-2,1-3.6,3.1-3.6c1.5,0,2.7,0.7,2.9,2.3H432.3z"/>
		<path class="st4" d="M437.6,725.1c2.1,0,3.2,1.5,3.2,3.5c0,2-1.1,3.5-3.2,3.5c-2.1,0-3.2-1.5-3.2-3.5
			C434.4,726.6,435.5,725.1,437.6,725.1z M437.6,731.1c1.1,0,2.1-0.9,2.1-2.5c0-1.6-0.9-2.5-2.1-2.5c-1.1,0-2.1,0.9-2.1,2.5
			C435.5,730.2,436.5,731.1,437.6,731.1z"/>
		<path class="st4" d="M442.1,725.3h1v1.1h0c0.5-0.8,1.2-1.2,2.2-1.2c1.8,0,2.3,1,2.3,2.4v4.4h-1.1v-4.5c0-0.8-0.5-1.3-1.4-1.3
			c-1.3,0-2,0.9-2,2.1v3.8h-1.1V725.3z"/>
		<path class="st4" d="M450,729.8c0,1,0.9,1.3,1.8,1.3c0.7,0,1.6-0.2,1.6-1c0-0.9-1.1-1-2.2-1.2c-1.1-0.2-2.2-0.6-2.2-1.9
			c0-1.3,1.3-1.9,2.5-1.9c1.5,0,2.6,0.5,2.7,2.1h-1.1c-0.1-0.9-0.8-1.1-1.5-1.1c-0.7,0-1.4,0.2-1.4,0.9c0,0.8,1.2,0.9,2.2,1.2
			c1.1,0.2,2.2,0.6,2.2,1.9c0,1.6-1.5,2.1-2.8,2.1c-1.5,0-2.8-0.6-2.8-2.3H450z"/>
		<path class="st4" d="M461.5,729.8c-0.3,1.5-1.4,2.3-2.9,2.3c-2.1,0-3.1-1.5-3.2-3.5c0-2,1.3-3.5,3.1-3.5c2.4,0,3.1,2.2,3,3.8h-5
			c0,1.2,0.6,2.2,2.1,2.2c0.9,0,1.5-0.4,1.7-1.3H461.5z M460.4,728c-0.1-1-0.8-1.9-1.9-1.9c-1.1,0-1.8,0.9-1.9,1.9H460.4z"/>
		<path class="st4" d="M468.7,734.5h-1.1V731h0c-0.4,0.7-1.2,1.1-2.1,1.1c-2.1,0-3.1-1.6-3.1-3.5c0-1.9,1-3.5,3-3.5
			c0.7,0,1.7,0.3,2.2,1h0v-0.9h1.1V734.5z M465.6,731.1c1.5,0,2-1.3,2-2.5c0-1.3-0.6-2.5-2.1-2.5c-1.5,0-2,1.3-2,2.6
			C463.5,729.9,464.2,731.1,465.6,731.1z"/>
		<path class="st4" d="M475.9,731.9h-1v-1.1h0c-0.5,0.8-1.2,1.2-2.2,1.2c-1.8,0-2.3-1-2.3-2.4v-4.4h1.1v4.5c0,0.8,0.5,1.3,1.4,1.3
			c1.3,0,2-0.9,2-2.1v-3.8h1.1V731.9z"/>
		<path class="st4" d="M483.4,731.9c-0.2,0.1-0.4,0.2-0.8,0.2c-0.6,0-0.9-0.3-0.9-1c-0.6,0.7-1.4,1-2.3,1c-1.2,0-2.2-0.5-2.2-1.9
			c0-1.5,1.1-1.8,2.3-2.1c1.2-0.2,2.2-0.2,2.2-1c0-1-0.8-1.1-1.5-1.1c-0.9,0-1.6,0.3-1.7,1.3h-1.1c0.1-1.7,1.3-2.2,2.8-2.2
			c1.2,0,2.5,0.3,2.5,1.8v3.4c0,0.5,0,0.7,0.3,0.7c0.1,0,0.2,0,0.3-0.1V731.9z M481.7,728.5c-0.4,0.3-1.3,0.3-2,0.5
			c-0.7,0.1-1.3,0.4-1.3,1.2c0,0.7,0.6,1,1.3,1c1.4,0,2-0.9,2-1.5V728.5z"/>
		<path class="st4" d="M486,725.3h1.3v1H486v4.1c0,0.5,0.1,0.6,0.8,0.6h0.5v1h-0.8c-1.1,0-1.6-0.2-1.6-1.5v-4.2h-1.1v-1h1.1v-2h1.1
			V725.3z"/>
		<path class="st4" d="M488.8,730.5h1.4v1.4h-1.4V730.5z"/>
	</g>
	<g>
		<linearGradient id="SVGID_2_" gradientUnits="userSpaceOnUse" x1="304.745" y1="223.1361" x2="362.0431" y2="463.9334">
			<stop  offset="0" style="stop-color:#F4B8B8"/>
			<stop  offset="0.1479" style="stop-color:#DC8787"/>
			<stop  offset="0.3399" style="stop-color:#C14D4D"/>
			<stop  offset="0.5046" style="stop-color:#AD2323"/>
			<stop  offset="0.6334" style="stop-color:#A10A0A"/>
			<stop  offset="0.7104" style="stop-color:#9C0000"/>
			<stop  offset="0.7952" style="stop-color:#A90101"/>
			<stop  offset="0.9526" style="stop-color:#CC0404"/>
			<stop  offset="1" style="stop-color:#D80505"/>
		</linearGradient>
		<path class="st5" d="M400.2,302.1c-34.8-65.3-50-111-50-111c-0.3,0.7-0.5,1.4-0.8,2.1c2.3,14.6,8,42.7,21.9,74.8
			c20.3,47.1,47.1,110.6,9.4,156.7c-19.6,23.6-72.2,25.7-93.9-9.8c-21.8-35.5-6.2-79.4,0-96.1c-3.8,7.2-6.7,12.8-8.3,16
			c-8.7,17.4-39.2,82.7,0,126.2c39.2,43.5,89.2,37,108.8,26.1C472,443.9,435,367.3,400.2,302.1z"/>
		<linearGradient id="SVGID_3_" gradientUnits="userSpaceOnUse" x1="339.6813" y1="429.3696" x2="332.4284" y2="231.3646">
			<stop  offset="0" style="stop-color:#DF3333"/>
			<stop  offset="2.997132e-02" style="stop-color:#DF3535"/>
			<stop  offset="0.1559" style="stop-color:#E03838"/>
			<stop  offset="0.6273" style="stop-color:#DB1919"/>
			<stop  offset="1" style="stop-color:#D80505"/>
		</linearGradient>
		<path class="st6" d="M286.7,414.8c21.8,35.5,74.3,33.4,93.9,9.8c37.7-46.1,10.9-109.5-9.4-156.7c-13.8-32.1-19.6-60.2-21.9-74.8
			c-13,32.6-46.1,94.4-62.6,125.6C280.5,335.4,264.9,379.3,286.7,414.8z"/>
		<defs>
			<filter id="Adobe_OpacityMaskFilter" filterUnits="userSpaceOnUse" x="265.9" y="394.9" width="165.7" height="95.6">
				<feFlood  style="flood-color:white;flood-opacity:1" result="back"/>
				<feBlend  in="SourceGraphic" in2="back" mode="normal"/>
			</filter>
		</defs>
		<mask maskUnits="userSpaceOnUse" x="265.9" y="394.9" width="165.7" height="95.6" id="SVGID_4_">
			<g class="st7">
				<defs>
					<filter id="Adobe_OpacityMaskFilter_1_" filterUnits="userSpaceOnUse" x="265.9" y="394.9" width="165.7" height="95.6">
						<feFlood  style="flood-color:white;flood-opacity:1" result="back"/>
						<feBlend  in="SourceGraphic" in2="back" mode="normal"/>
					</filter>
				</defs>
				<mask maskUnits="userSpaceOnUse" x="265.9" y="394.9" width="165.7" height="95.6" id="SVGID_4_">
					<g class="st8">
					</g>
				</mask>
				<linearGradient id="SVGID_5_" gradientUnits="userSpaceOnUse" x1="265.9319" y1="442.6676" x2="431.6638" y2="442.6676">
					<stop  offset="0" style="stop-color:#FFFFFF"/>
					<stop  offset="9.631937e-02" style="stop-color:#F9F9F9"/>
					<stop  offset="0.2205" style="stop-color:#E9E9E9"/>
					<stop  offset="0.3601" style="stop-color:#CFCFCF"/>
					<stop  offset="0.5108" style="stop-color:#AAAAAA"/>
					<stop  offset="0.6705" style="stop-color:#7A7A7A"/>
					<stop  offset="0.8353" style="stop-color:#414141"/>
					<stop  offset="1" style="stop-color:#000000"/>
				</linearGradient>
				<path class="st9" d="M266.8,421.7c2.4,10.1,7.1,19.7,13,28.1c6,8.4,13.6,15.6,22.2,21.1c17.3,10.8,38.5,15.8,58.2,11.9
					c9.8-1.9,19.2-5.9,27.6-11.4c2.1-1.3,4.1-2.8,6.2-4.3c1.9-1.6,4-3,5.8-4.7l2.8-2.5l2.7-2.6c0.9-0.8,1.8-1.7,2.7-2.7
					c0.8-0.9,1.8-1.8,2.5-2.8l2.5-2.8l2.2-2.9l2-3.1l1.8-3.2c2.3-4.4,4-9.1,5.5-14c2.8-9.8,4.3-20.1,4.3-30.6l0,0
					c0-0.2,0.2-0.4,0.4-0.4c0.2,0,0.4,0.1,0.4,0.3c2.6,10.4,2.6,21.3,0.8,32c-0.9,5.4-2.4,10.7-4.5,15.8c-0.6,1.3-1.1,2.6-1.8,3.8
					c-0.7,1.2-1.3,2.5-2.1,3.7l-2.4,3.6l-2.5,3.3c-7,8.5-15.4,15.8-24.9,21.2c-9.6,5.4-20,9.3-30.9,10.9c-10.8,1.7-22,1-32.5-1.8
					c-10.5-2.8-20.5-7.2-29.3-13.4c-17.6-12.5-30-31.7-33.7-52.6c0-0.2,0.1-0.5,0.4-0.5C266.5,421.3,266.7,421.4,266.8,421.7
					L266.8,421.7z"/>
			</g>
		</mask>
		<linearGradient id="SVGID_6_" gradientUnits="userSpaceOnUse" x1="265.9319" y1="442.6676" x2="431.6638" y2="442.6676">
			<stop  offset="0" style="stop-color:#F4B8B8"/>
			<stop  offset="0.211" style="stop-color:#F5BEBE"/>
			<stop  offset="0.4828" style="stop-color:#F7CECE"/>
			<stop  offset="0.7865" style="stop-color:#FBE8E8"/>
			<stop  offset="1" style="stop-color:#FFFFFF"/>
		</linearGradient>
		<path class="st10" d="M266.8,421.7c2.4,10.1,7.1,19.7,13,28.1c6,8.4,13.6,15.6,22.2,21.1c17.3,10.8,38.5,15.8,58.2,11.9
			c9.8-1.9,19.2-5.9,27.6-11.4c2.1-1.3,4.1-2.8,6.2-4.3c1.9-1.6,4-3,5.8-4.7l2.8-2.5l2.7-2.6c0.9-0.8,1.8-1.7,2.7-2.7
			c0.8-0.9,1.8-1.8,2.5-2.8l2.5-2.8l2.2-2.9l2-3.1l1.8-3.2c2.3-4.4,4-9.1,5.5-14c2.8-9.8,4.3-20.1,4.3-30.6l0,0
			c0-0.2,0.2-0.4,0.4-0.4c0.2,0,0.4,0.1,0.4,0.3c2.6,10.4,2.6,21.3,0.8,32c-0.9,5.4-2.4,10.7-4.5,15.8c-0.6,1.3-1.1,2.6-1.8,3.8
			c-0.7,1.2-1.3,2.5-2.1,3.7l-2.4,3.6l-2.5,3.3c-7,8.5-15.4,15.8-24.9,21.2c-9.6,5.4-20,9.3-30.9,10.9c-10.8,1.7-22,1-32.5-1.8
			c-10.5-2.8-20.5-7.2-29.3-13.4c-17.6-12.5-30-31.7-33.7-52.6c0-0.2,0.1-0.5,0.4-0.5C266.5,421.3,266.7,421.4,266.8,421.7
			L266.8,421.7z"/>
	</g>
</g>
<g class="st1">
	<path class="st2" d="M336.9,425.5h-4.2v4.2H329v-4.2h-4.2v-3.7h4.2v-4.2h3.7v4.2h4.2V425.5z"/>
</g>
</svg>
